<?xml version="1.0" encoding="UTF-8" standalone="no"?>
<svg
   viewBox="0 0 3000 2000"
   height="2000"
   width="3000"
   xml:space="preserve"
   id="svg2"
   version="1.1"
   sodipodi:docname="supplies.svg"
   inkscape:version="1.1.2 (b8e25be8, 2022-02-05)"
   xmlns:inkscape="http://www.inkscape.org/namespaces/inkscape"
   xmlns:sodipodi="http://sodipodi.sourceforge.net/DTD/sodipodi-0.dtd"
   xmlns="http://www.w3.org/2000/svg"
   xmlns:svg="http://www.w3.org/2000/svg"
   xmlns:rdf="http://www.w3.org/1999/02/22-rdf-syntax-ns#"
   xmlns:cc="http://creativecommons.org/ns#"
   xmlns:dc="http://purl.org/dc/elements/1.1/"><sodipodi:namedview
     id="namedview130"
     pagecolor="#ffffff"
     bordercolor="#666666"
     borderopacity="1.0"
     inkscape:pageshadow="2"
     inkscape:pageopacity="0.0"
     inkscape:pagecheckerboard="0"
     showgrid="false"
     width="3500px"
     inkscape:zoom="0.22896619"
     inkscape:cx="1648.715"
     inkscape:cy="1207.6019"
     inkscape:window-width="1800"
     inkscape:window-height="1097"
     inkscape:window-x="0"
     inkscape:window-y="44"
     inkscape:window-maximized="1"
     inkscape:current-layer="g12" /><metadata
     id="metadata8"><rdf:RDF><cc:Work
         rdf:about=""><dc:format>image/svg+xml</dc:format><dc:type
           rdf:resource="http://purl.org/dc/dcmitype/StillImage" /></cc:Work></rdf:RDF></metadata><defs
     id="defs6" /><g
     transform="matrix(1.3333333,0,0,-1.3333333,0,2666.6667)"
     id="g10"><g
       transform="scale(0.1)"
       id="g12"><g
         transform="scale(1.84049)"
         id="g14" /><g
         transform="matrix(1.21571,0,0,1.21571,-2535,2265)"
         id="g22"><path
           id="path24"
           style="fill:#ead6c3;fill-opacity:1;fill-rule:nonzero;stroke:none"
           d="M 15400.7,10600.9 H 9986.05 v 2345.7 h 5414.65 v -2345.7 m 0,-2632.19 H 13858 l -4.1,1346.08 -1509.9,-4.66 v -0.58 l -453,-1.74 v -0.01 l -3.1,-0.01 1,-425.76 3.1,-2.36 2.3,-910.96 H 9986.05 V 10314.3 H 15400.7 V 7968.71 m 0,-2632.22 h -528.9 l -4.1,2184.49 -1509.9,-4.6 v -0.58 l -453.1,-1.81 v 0 h -3.1 l 1,-425.76 2.7,-2.06 2.8,-1748.69 h 453.8 v -0.99 h -1395.8 -16.7 l -3.7,1346.05 -1509.9,-4.61 v -0.65 l -449.75,-1.73 V 7682.12 H 15400.7 V 5336.49 m -4205.7,1.15 5.2,-1.15 h -5.2 v 1.15 m 4205.7,-1302.21 -1496.5,-4.6 v -0.58 l -453.1,-1.73 v -0.08 h -3.1 l 1.1,-425.76 3.1,-2.3 2.2,-896.19 H 9986.05 v 2345.64 h 5414.65 v -1014.4 m -5414.65,1320.14 0.08,-19.08 h -0.08 v 19.08 M 15529.2,13070 h -457.8 l -2.6,864 -978.5,-3 v -0.3 l -293.5,-1.2 v 0 h -2 l 0.6,-275.9 2.1,-1.5 1.4,-582.1 H 9857.65 V 2569.62 h 5671.55 v -3.7 H 16300 V 13070 h -770.8" /></g><path
         id="path26"
         style="fill:#d3671e;fill-opacity:1;fill-rule:nonzero;stroke:none"
         d="m 11324.7,7922.4 -2856.7,8.8 -7.8,-2533.6 2856.7,-8.8 7.8,2533.6" /><path
         id="path28"
         style="fill:#f1a34f;fill-opacity:1;fill-rule:nonzero;stroke:none"
         d="m 12181.8,7918 -2287,8.8 -6.2,-2533.6 2287,-8.8 6.2,2533.6" /><path
         id="path30"
         style="fill:#edb78b;fill-opacity:1;fill-rule:nonzero;stroke:none"
         d="m 12181.5,7918 -856.8,3.3 v 0.4 l 856.8,-3.3 v -0.4 m -1781.6,7.2 -511.3,1.6 v 0.4 l 511.3,-2" /><path
         id="path32"
         style="fill:#d5671a;fill-opacity:1;fill-rule:nonzero;stroke:none"
         d="m 9882.3,5393.6 6.3,2533.2 511.3,-1.6 924.8,-3.5 v -0.4 l -1429.9,5.5 -6.2,-2528.5 -6.3,-4.7" /><path
         id="path34"
         style="fill:#e78b37;fill-opacity:1;fill-rule:nonzero;stroke:none"
         d="m 9888.6,5398.3 6.2,2528.5 1429.9,-5.5 856.8,-3.3 -2,-805.2 -2290.9,-1714.5" /><path
         id="path36"
         style="fill:#d3671e;fill-opacity:1;fill-rule:nonzero;stroke:none"
         d="m 8559.5,7016.9 -1835.57,5.7 -5.01,-1628 1835.58,-5.7 5,1628" /><path
         id="path38"
         style="fill:#f1a34f;fill-opacity:1;fill-rule:nonzero;stroke:none"
         d="m 9110.3,7014.1 -1469.6,5.6 -4,-1627.9 1469.6,-5.7 4,1628" /><path
         id="path40"
         style="fill:#d5671a;fill-opacity:1;fill-rule:nonzero;stroke:none"
         d="m 9109,6493.6 1.3,520.5 h 3.8 l -1.3,-517.6 -3.8,-2.9" /><path
         id="path42"
         style="fill:#e78b37;fill-opacity:1;fill-rule:nonzero;stroke:none"
         d="m 7636.7,5391.8 v 0 l 4,1627.9 1469.6,-5.6 -1.3,-520.5 -1472.3,-1101.8" /><g
         transform="matrix(1.04158,0,0,1.04158,-2535,2265)"
         id="g44"><path
           id="path46"
           style="fill:#233862;fill-opacity:1;fill-rule:nonzero;stroke:none"
           d="m 16296.8,3830.92 c -6.7,81.23 -24.1,158.51 -50.1,230.04 -4.9,13.63 -10.2,27.07 -15.7,40.23 -4.1,9.69 -8.4,19.2 -12.7,28.61 -5,10.66 -10.3,21.22 -15.7,31.49 -5.8,11.33 -12,22.46 -18.4,33.41 -31.4,53.57 -68.1,102.06 -109.5,143.92 l -0.5,0.48 c -14.6,14.69 -29.9,28.61 -45.5,41.76 -12.3,10.18 -24.9,19.68 -37.7,28.8 -18.5,13.06 -37.4,25.06 -57,35.81 -7.3,3.94 -14.6,7.78 -22,11.52 -62.2,30.63 -129.2,49.45 -199.4,53.86 -10.5,0.68 -21.2,0.96 -31.9,0.96 h -288 c -342,0 -619.2,-339.58 -619.2,-758.46 0,-418.88 277.2,-758.47 619.2,-758.47 h 288 c 10.7,0 21.4,0.39 31.9,0.97 70.2,4.41 137.2,23.23 199.4,53.95 7.4,3.65 14.7,7.49 22,11.52 19.6,10.66 38.5,22.66 57,35.72 12.8,9.12 25.4,18.62 37.7,28.9 15.6,13.05 30.9,26.97 45.5,41.76 l 0.5,0.38 c 41.4,41.86 78.1,90.35 109.5,143.92 6.4,10.94 12.6,22.08 18.4,33.41 5.4,10.37 10.7,20.83 15.7,31.49 4.3,9.41 8.6,18.91 12.7,28.61 5.5,13.15 10.8,26.6 15.7,40.23 26,71.52 43.4,148.91 50.1,230.04 2.1,25.53 3.2,51.36 3.2,77.57 0,26.21 -1.1,52.04 -3.2,77.57" /></g><path
         id="path48"
         style="fill:#ffa412;fill-opacity:1;fill-rule:nonzero;stroke:none"
         d="m 7924,13608.8 c -4.2,-10.4 -14.7,-16 -23.5,-12.5 -8.7,3.6 -12.3,14.9 -8.1,25.4 4.3,10.4 14.8,16 23.5,12.5 8.8,-3.6 12.4,-14.9 8.1,-25.4 z m 184.6,-9.5 h -151.2 c 10.8,30.8 -0.2,63.2 -25.7,73.6 -26.6,10.8 -58.6,-6.3 -71.5,-38.1 -4.9,-11.9 -6.3,-24.2 -4.9,-35.5 h -147.9 c -5.2,0 -10.1,-2.2 -13.6,-6.2 l -48.8,-56.5 c -10.1,-11.7 -1.9,-29.8 13.5,-29.8 h 401.3 c 5.2,0 10.1,2.3 13.6,6.3 l 48.8,56.5 c 10.1,11.6 1.8,29.7 -13.6,29.7" /><path
         id="path50"
         style="fill:#2c3a64;fill-opacity:1;fill-rule:nonzero;stroke:none"
         d="m 5239.84,17697.7 -486.94,-381.6 c -22.85,-35.7 26.11,-37.6 4.72,-81.5 -197.85,-406.2 -65.13,-840.5 102.37,-796.6 107.43,28.1 137.81,-155.2 137.81,-155.2 l 1043.68,844.9 c 0,0 -383.34,793.2 -801.64,570" /><path
         id="path52"
         style="fill:#2b478b;fill-opacity:1;fill-rule:nonzero;stroke:none"
         d="m 5603.22,5732.4 -221.69,-82.6 c 0,0 -962.89,1335.5 -1081.44,2510.5 -21.17,209.7 -14.11,413 31.67,600.7 0,0 -9.4,53.7 -25.87,148.8 -7.61,44.3 -17.01,97.7 -27.69,158.9 -31.32,179.3 -74.4,424.8 -123.63,704.2 -113.3,643.1 -260.09,1465.1 -374.1,2069.5 l 59.73,19.2 646.32,208.4 133.56,424.3 481.26,126.7 c 0,0 107.51,-210.3 203.61,-1203.8 17.75,-130.3 33.85,-274 45.98,-429.8 37.47,-475.7 40.17,-1065.7 -45.79,-1740.3 -22.09,-172.6 -49.95,-350.9 -84.53,-534.1 -25.34,-134.3 -29.14,-317.2 -18.46,-527.4 48.51,-960.5 401.07,-2453.2 401.07,-2453.2" /><path
         id="path54"
         style="fill:#233862;fill-opacity:1;fill-rule:nonzero;stroke:none"
         d="M 5350.93,10987.4 4305.89,8909.8 c -7.61,44.3 -17.01,97.7 -27.69,158.9 -31.32,179.3 -74.4,424.8 -123.63,704.2 -113.3,643.1 -260.09,1465.1 -374.1,2069.5 l 59.73,19.2 646.32,208.4 133.56,424.3 481.26,126.7 c 0,0 107.51,-210.3 203.61,-1203.8 17.75,-130.3 33.85,-274 45.98,-429.8" /><path
         id="path56"
         style="fill:#2b478b;fill-opacity:1;fill-rule:nonzero;stroke:none"
         d="m 4891.19,12354.4 -24.19,207.4 c -405.31,-107.6 -1488.23,300.9 -1488.23,300.9 0,0 -392.64,-345.2 -341.09,-1172.5 25.16,-403.9 71.13,-2119.8 119.13,-2627.6 17.35,-184 32.55,-314.9 38.75,-367.3 l 0.12,-0.5 c 1.91,-15.9 -3.66,-31 -11.77,-44.9 -70.67,-120 -129.19,-244.9 -177.19,-372.7 -471.17,-1255.5 72.57,-2801.8 72.57,-2801.8 l 141.1,56.9 c 0,0 309.41,1720.8 560.84,2481 42.68,128.9 83.59,230.2 121.09,290.8 109.29,176.4 210.75,464.7 302.83,807.6 174.03,648.2 314.1,1491.5 407.33,2142.4 12.86,-0.6 278.71,1100.3 278.71,1100.3" /><path
         id="path58"
         style="fill:#ed985f;fill-opacity:1;fill-rule:nonzero;stroke:none"
         d="m 8084.3,12619.4 c -87.2,-77.2 -318.8,187.9 -350.7,223.1 -1.6,3.4 -3.3,5.1 -3.3,5.1 l 70.5,196.3 c 0,0 303.6,11.7 353.9,-38.6 50.4,-50.4 25.2,-303.7 -70.4,-385.9" /><path
         id="path60"
         style="fill:#ed985f;fill-opacity:1;fill-rule:nonzero;stroke:none"
         d="m 7800.8,13043.9 -30.2,-203.1 c 0,0 -13.5,0 -37,1.7 -73.8,5.1 -253.3,15.1 -456.28,36.9 -305.33,30.2 -667.72,83.9 -812,172.8 -219.76,134.2 -580.47,545.3 -815.34,956.3 -6.72,10.1 -11.74,20.1 -16.78,30.2 -122.47,218.1 -208.03,434.5 -214.73,607.3 -5.04,105.7 6.7,196.3 28.51,275.2 28.51,104 75.5,186.2 124.15,248.2 6.72,10.1 13.42,20.2 23.49,28.6 80.53,95.6 159.38,135.9 159.38,135.9 40.26,16.7 83.88,-3.4 129.17,-52 v -1.7 c 36.91,-38.6 77.18,-97.3 115.76,-171.2 1.68,-1.6 3.36,-3.3 3.36,-5 8.39,-15.1 16.78,-31.9 26.85,-50.3 3.34,-3.4 5.02,-8.4 6.7,-11.8 18.46,-38.5 36.9,-78.8 55.37,-120.7 206.35,-449.7 426.13,-1130.8 609,-1333.8 78.84,-87.2 439.56,-258.3 726.42,-385.9 206.37,-90.6 374.17,-157.6 374.17,-157.6" /><path
         id="path62"
         style="fill:#ffb27d;fill-opacity:1;fill-rule:nonzero;stroke:none"
         d="m 5665.49,14870.7 c -127.24,-59 -280.91,-99.2 -466.78,-109.3 -696.81,-38.2 -855,572.6 -883.78,978 100.45,36.4 188.41,33 239.09,30.3 49.41,-2.8 101,-7.8 143.52,-13.1 85.26,44.6 238.37,260.8 326.87,622.7 l 30.05,-14 502.79,-236.4 c 0,0 -53.38,-163.6 -92.84,-320.1 -30.77,-122.6 -52.86,-240.9 -34.39,-274 39.64,-16.2 63.35,-26.3 63.35,-26.3 l 0.17,-0.6 c 5.07,-12.8 114.38,-291.3 171.95,-637.2" /><path
         id="path64"
         style="fill:#739af0;fill-opacity:1;fill-rule:nonzero;stroke:none"
         d="m 5839.79,14413.5 c -5.26,-13.9 -11.05,-27.5 -17.39,-41.4 -176.45,-380.1 -503.16,-1954.6 -503.16,-1954.6 46.52,-283 -2127.36,55.6 -2132.97,313.3 -76.56,273.3 271.67,712.4 468.06,932.7 24.6,27.7 46.69,57.4 65.88,88.7 48.49,78.5 79.27,167.2 89.04,259.9 38.56,365.3 23.88,707.7 27.14,915.9 v 0.1 c 38.38,28.4 75.49,54.6 110.05,79.6 52.84,38.6 99.55,74.6 133.94,111.1 37.82,39.9 61.53,80.6 64.23,126.5 2,34.8 0.92,70.5 -2.7,106.1 -1.64,16.8 -3.8,33.7 -6.34,50.5 -27.15,176.8 -100.99,337.2 -100.99,337.2 186.96,75.6 519.44,30.6 519.44,30.6 0,0 -0.36,-18.5 -0.54,-48.7 -1.09,-121.5 0,-433.3 38.91,-492.3 48.69,-73.5 939.33,-395.5 986.41,-295.8 46.32,98.2 -80.55,557.7 -85.26,575 l -0.17,0.6 c 298.26,-117.1 404.87,-215.4 404.87,-215.4 -179.73,-116.5 80.54,-510.9 -58.45,-879.6" /><path
         id="path66"
         style="fill:#ed985f;fill-opacity:1;fill-rule:nonzero;stroke:none"
         d="m 5557.26,16128.8 c 0,0 -53.46,-163.4 -92.84,-320.1 -293.88,82 -383.13,390.9 -410,556.5 l 502.84,-236.4" /><path
         id="path68"
         style="fill:#ffb27d;fill-opacity:1;fill-rule:nonzero;stroke:none"
         d="m 5619.16,15955.8 c 0,0 -703.13,162.7 -595.05,599 108.07,436.3 90.11,751.2 543.6,665.7 453.51,-85.4 499.16,-273.4 498.5,-427.9 -0.66,-154.4 -261.37,-867.9 -447.05,-836.8" /><path
         id="path70"
         style="fill:#2c3a64;fill-opacity:1;fill-rule:nonzero;stroke:none"
         d="m 6105.75,17040.4 c -75.58,158.1 -164.55,149.7 -220.2,121.6 -330.38,305.7 -831.13,152.1 -831.13,152.1 -124.73,-301.3 -218.36,-520.6 -218.36,-520.6 0,0 108.01,-110.6 421.09,-108.1 95.62,0.7 191.78,44.6 279.27,105.1 -168.75,-169.9 -366.62,-273.4 -366.62,-273.4 391.89,75 654.69,528.7 681.61,576.9 33.19,-49.1 96.7,-153.4 102.05,-241.5 7.26,-119.8 -33.94,-352.4 34.64,-361.2 0,0 231.01,311.9 117.65,549.1" /><path
         id="path72"
         style="fill:#739af0;fill-opacity:1;fill-rule:nonzero;stroke:none"
         d="m 5898.31,15293.2 c 0,0 169.3,-295.3 194.62,-371.3 0,0 -219.53,8.4 -308.18,-160.5 0,0 -21.26,492 113.56,531.8" /><path
         id="path74"
         style="fill:#4a75cb;fill-opacity:1;fill-rule:nonzero;stroke:none"
         d="m 4733.93,12946.6 c -428.77,4.5 -791.84,449.7 -1013.72,805.6 48.49,78.5 79.27,167.2 89.04,259.9 38.56,365.3 23.88,707.7 27.14,915.9 v 0.1 c 38.38,28.4 75.49,54.6 110.05,79.6 52.84,38.6 99.55,74.6 133.94,111.1 351.1,-593.4 1234.89,-2178.4 653.55,-2172.2" /><path
         id="path76"
         style="fill:#233862;fill-opacity:1;fill-rule:nonzero;stroke:none"
         d="M 3899.62,5360.2 H 2783.06 c 0,0 -26.76,170.2 31.55,299.3 55.9,123.8 143.43,180.1 122.47,330 70.95,-73 186.58,-154.8 348,-133.1 19.78,-32.1 127.66,-203.7 193.74,-251.1 72.96,-52.5 398.33,-33.8 420.8,-245.1" /><path
         id="path78"
         style="fill:#233862;fill-opacity:1;fill-rule:nonzero;stroke:none"
         d="M 6297,5360.2 H 5180.45 c 0,0 -41.73,178.1 31.57,299.3 64.88,107.2 40,168.3 -8.06,257 50.59,-20.7 116.03,-39.6 188.07,-35.5 55.63,3.2 114.46,28.5 166.05,58.5 48.05,-54.8 253.83,-288 318.13,-334.2 72.96,-52.5 398.32,-33.8 420.79,-245.1" /><path
         id="path80"
         style="fill:#233862;fill-opacity:1;fill-rule:nonzero;stroke:none"
         d="m 7335.12,13558.1 -1086.43,-1413.3 16.11,-19.7 1101.86,1415.9 -31.54,17.1" /><path
         id="path82"
         style="fill:#2b478b;fill-opacity:1;fill-rule:nonzero;stroke:none"
         d="M 7364.55,13538.3 H 8467.1 L 7312.95,12125.1 H 6264.8 l 1099.75,1413.2" /><path
         id="path84"
         style="fill:#ffb27d;fill-opacity:1;fill-rule:nonzero;stroke:none"
         d="m 7137.77,12680.7 c -3.06,56.2 -77.23,53.7 -133.56,53.9 -92.4,0.5 -238.16,6.8 -322.47,39.1 0,0 269.25,3.9 212.03,89 -10.43,15.4 -144.26,3.7 -293.69,3.7 -61.27,0 -212.73,-84 -204.91,-87.9 -108.27,14.3 -206.71,35.3 -238.53,42.2 -73.83,40.3 -162.74,88.9 -256.68,142.6 -226.49,127.5 -486.53,283.5 -664.36,412.7 -102.34,73.8 -179.52,139.3 -206.35,186.2 -41.95,72.2 -88.93,186.3 -140.93,327.2 -26.84,73.8 -55.37,154.3 -83.89,239.9 -50.33,140.9 -100.66,293.6 -152.67,446.2 -93.94,278.5 -194.61,558.7 -290.23,775.1 -62.06,135.9 -122.47,248.3 -179.51,317.1 -45.3,55.4 -88.92,83.9 -130.86,77.2 -6.71,-1.7 -11.75,-3.4 -16.78,-5 0,0 -241.58,-67.1 -244.94,-553.7 -1.68,-26.8 0,-55.3 1.68,-85.5 3.36,-85.6 20.13,-189.6 45.3,-303.7 40.26,-191.2 107.37,-412.7 191.25,-637.5 23.49,-60.4 46.97,-122.5 72.14,-184.6 181.19,-449.6 414.39,-869 610.67,-1011.6 8.4,-6.7 15.1,-11.7 23.48,-16.8 82.21,-52 203.01,-104 342.25,-152.6 197.96,-67.2 432.84,-127.5 642.55,-177.9 h 1.68 c 122.47,-26.8 234.88,-52 328.82,-70.4 0,0 15.42,-3.9 42.87,-9.3 3.93,-0.8 8.09,-1.6 12.49,-2.5 88.93,-21.8 271.78,-68.8 444.59,-135.9 241.6,-95.6 419.31,23.3 499.94,107.4 51.12,53.3 91.42,124.1 88.62,175.4" /><path
         id="path86"
         style="fill:#739af0;fill-opacity:1;fill-rule:nonzero;stroke:none"
         d="m 4360.94,15349.9 c -322.98,89.1 -572.12,-163.1 -572.12,-163.1 4.06,485.7 245.85,552.2 245.85,552.2 97.27,40.3 302.95,-68.4 326.27,-389.1" /><path
         id="path88"
         style="fill:#ffa412;fill-opacity:1;fill-rule:nonzero;stroke:none"
         d="m 5680.82,17942 c -160.01,36.6 -295.43,33.9 -409.81,5.8 -11.32,-2.8 -22.54,-5.8 -33.51,-9.1 l -0.16,-0.1 C 4800.53,17808 4690.55,17302 4690.55,17302 c 0,0 -18.28,-132.7 -13.65,-190.2 4.64,-57.4 420.74,-205.8 483.79,-131.9 63.05,73.8 185.02,121.9 185.02,121.9 0,0 425.92,-181.3 454.62,-193.4 96.4,-40.6 408.73,-83.5 408.73,-83.5 10.25,27.6 282.56,931.5 -528.24,1117.1" /><path
         id="path90"
         style="fill:#e27f2b;fill-opacity:1;fill-rule:nonzero;stroke:none"
         d="m 6497.38,16788.2 c -43.22,37.2 -120.56,93.5 -256.67,169.2 0,0 -165.61,-37.1 -434.61,7.3 -38.99,192.6 -180.67,680.9 -535.09,983.1 -1.06,0.9 -2.01,1.8 -3.07,2.7 -14.08,-6.4 -20.78,-7.6 -30.44,-11.8 l -0.16,-0.1 c -2.89,-1.2 -6.1,-2.7 -9.81,-4.8 299.43,-224.6 423.78,-752.7 460.6,-945.5 -103.5,24.2 -218.42,60.3 -342.42,113.5 0,0 317.11,-337.7 1129.26,-374.1 31.74,-1.4 46.49,39.8 22.41,60.5" /><path
         id="path92"
         style="fill:#233862;fill-opacity:1;fill-rule:nonzero;stroke:none"
         d="M 7335.12,13558.1 H 8443.9 l 23.2,-19.8 H 7364.55 l -29.43,19.8" /><g
         transform="matrix(1.12264,0,0,1.12264,-2535,2265)"
         id="g94"><path
           id="path96"
           style="fill:#2b478b;fill-opacity:1;fill-rule:nonzero;stroke:none"
           d="M 16236.4,4123.68 H 14458 c -35.1,0 -63.5,29.93 -63.5,66.81 0,36.88 28.4,66.8 63.5,66.8 h 1778.4 c 35.1,0 63.6,-29.92 63.6,-66.8 0,-36.88 -28.5,-66.81 -63.6,-66.81" /></g><g
         transform="matrix(1.12394,0,0,1.12394,-2535,2265)"
         id="g98"><path
           id="path100"
           style="fill:#2b478b;fill-opacity:1;fill-rule:nonzero;stroke:none"
           d="m 16235.3,6174.18 h -1811.6 c -35.8,0 -64.8,29.9 -64.8,66.73 0,36.84 29,66.73 64.8,66.73 h 1811.6 c 35.7,0 64.7,-29.89 64.7,-66.73 0,-36.83 -29,-66.73 -64.7,-66.73" /></g><g
         transform="matrix(1.33498,0,0,1.33498,-2535,2265)"
         id="g102"><path
           id="path104"
           style="fill:#739af0;fill-opacity:1;fill-rule:nonzero;stroke:none"
           d="m 14613.5,7776.1 c 90.5,-20.91 499.4,-25.88 786.6,38.65 59.8,13.4 114.5,29.83 159.7,49.82 54.1,23.84 94.9,52.66 115.7,87.36 32.4,54.08 91.8,239.15 161.6,481.84 192.3,668.54 462.9,1773.23 462.9,1773.23 0,0 -543.3,-110.9 -658.3,-205.5 -115,-94.7 -216.5,-1596.33 -324.6,-1636.93 -16,-5.98 -43.5,-18.57 -78.7,-35.92 -1.7,-0.81 -3.4,-1.72 -5.2,-2.53 -21,-10.35 -44.6,-22.32 -70.2,-35.51 -224.3,-115.25 -595.5,-322.95 -634,-369.12 -50.8,-60.87 -47.4,-114.96 84.5,-145.39" /></g><g
         transform="matrix(1.44743,0,0,1.44743,-2535,2265)"
         id="g106"><path
           id="path108"
           style="fill:#739af0;fill-opacity:1;fill-rule:nonzero;stroke:none"
           d="m 14439.7,8625.51 c 0,23.59 2.3,47.18 6.6,70.84 64.5,354.58 577.2,717.66 587.3,717.66 l 0.1,-7.39 c 0,-54.18 85.4,-154.22 217,-162.82 156.1,-10.2 348.7,78.83 348.7,168.76 1,0 87.8,-11.74 117.2,-15.01 125.1,-14.23 374.8,-81.79 481.7,-162.64 101.7,-76.83 -42,-561.3 -131,-904.35 -37.7,-145.14 -65.5,-264.92 -60.9,-317.98 2.2,-25.92 25.5,-378.07 46.3,-696.6 17.2,-262.78 32.7,-502.59 33.2,-517.72 1.1,-29.85 -147.3,-134.38 -396.5,-213.35 -60.2,-19.06 -126.3,-36.68 -197.7,-51.26 -127.8,-26.32 -272.5,-43.25 -429.9,-42.7 -51.5,0.21 -100.2,2.84 -146.3,7.4 -356,34.96 -477.9,440.59 -475.8,2127.16" /></g><g
         transform="matrix(1.38572,0,0,1.38572,-2535,2265)"
         id="g110"><path
           id="path112"
           style="fill:#d9935c;fill-opacity:1;fill-rule:nonzero;stroke:none"
           d="m 16294,9836.1 c 3.2,143.85 0.8,315.6 -18.6,460.7 l -574.2,-93.8 c 0,0 -0.6,-175.3 1.9,-369.74 -0.3,-0.04 -15.6,-180.33 206.6,-206.73 222.1,-26.39 390.3,70.38 384.3,209.57" /></g><g
         transform="matrix(1.35052,0,0,1.35052,-2535,2265)"
         id="g114"><path
           id="path116"
           style="fill:#233862;fill-opacity:1;fill-rule:nonzero;stroke:none"
           d="m 16225.9,2291.87 c 74.1,45.54 30.6,383.4 30.6,383.4 0,0 -347,275.46 -393.7,63.39 -46.8,-212.07 -327.5,-308.18 -487.4,-334.76 -110.4,-18.36 -151.1,-75.38 -161.6,-111.66 l 1012.1,-0.37" /></g><g
         transform="matrix(1.42547,0,0,1.42547,-2535,2265)"
         id="g118"><path
           id="path120"
           style="fill:#4a75cb;fill-opacity:1;fill-rule:nonzero;stroke:none"
           d="m 15884,7675.18 c 0,-535.26 259.4,-391.01 416,-246.48 -21,323.45 -35.9,1469.11 -35.9,1469.11 0,0 -380.1,-456.1 -380.1,-1222.63" /></g><g
         transform="matrix(1.29707,0,0,1.29707,-2535,2265)"
         id="g122"><path
           id="path124"
           style="fill:#4a75cb;fill-opacity:1;fill-rule:nonzero;stroke:none"
           d="m 15606.1,8532.91 c 11.4,-82.5 141.8,-322.68 244,-489.77 61.6,13.8 117.9,30.7 164.5,51.28 55.7,24.54 97.6,54.2 119,89.91 33.4,55.67 94.5,246.14 166.4,495.93 -53.2,307.43 -103.7,611.01 -103.7,611.01 l -15.6,203.63 c 0,-15.67 -238.5,-910.3 -346.4,-931.19 -65.1,-12.63 -111.3,2.72 -150.5,8.36 -1.8,-0.84 -3.6,-1.78 -5.4,-2.61 -21.6,-10.65 -45.9,-22.97 -72.3,-36.55" /></g><g
         transform="matrix(1.4386,0,0,1.4386,-2535,2265)"
         id="g126"><path
           id="path128"
           style="fill:#233862;fill-opacity:1;fill-rule:nonzero;stroke:none"
           d="m 16230.5,2151.54 c 69.5,42.76 28.7,359.94 28.7,359.94 0,0 -325.7,258.58 -369.7,59.5 -43.8,-199.08 -307.4,-289.31 -457.5,-314.26 -103.6,-17.24 -141.2,-70.77 -151,-104.83 l 949.5,-0.35" /></g><g
         transform="matrix(1.42244,0,0,1.42244,-2535,2265)"
         id="g130"><path
           id="path132"
           style="fill:#233862;fill-opacity:1;fill-rule:nonzero;stroke:none"
           d="m 15926.6,10192.3 c 0,0 373.4,588.7 -343.5,627.7 0,0 -268.9,-31.7 -329.8,29.2 0,0 -208.6,-317.1 -13.9,-656.9 194.8,-339.9 687.2,0 687.2,0" /></g><g
         transform="matrix(1.39057,0,0,1.39057,-2535,2265)"
         id="g134"><path
           id="path136"
           style="fill:#d9935c;fill-opacity:1;fill-rule:nonzero;stroke:none"
           d="m 15663.4,10111.6 c 55.6,-43.7 218.6,-87.2 265.7,-92.2 0,0 241.7,53.9 285.7,80.4 68,41.2 63.6,124.7 67.2,240.8 4.1,137.4 18,245.3 2.6,324.5 -18.2,94.8 -78.3,148.7 -246.5,163.3 -308.7,26.8 -437.4,-50.5 -442.8,-154 -1.3,-27.8 -2.6,-54.3 -3.6,-79.4 -12.3,-322.9 13.2,-437.4 71.7,-483.4" /></g><g
         transform="matrix(1.38986,0,0,1.38986,-2535,2265)"
         id="g138"><path
           id="path140"
           style="fill:#233862;fill-opacity:1;fill-rule:nonzero;stroke:none"
           d="m 15597,10494.5 c 2.9,-187.1 53.4,-297.9 90,-311.9 42.1,-16.1 91.6,-29.4 143.2,-38.2 17.5,-2.1 34.1,-1.5 33.9,8.4 -0.5,29.5 -40,65.9 -10.6,92 30.7,27.4 195.7,36.6 209,-23.2 6.5,-29.1 -46.8,-80.6 -10.3,-81.8 11.1,1.9 22,4 32.3,6.7 60.1,15.7 107.2,44.1 127.1,56.1 68,41.2 63.6,104.5 78.7,219.7 9.7,74.6 9.7,34.2 0,-76.4 -10.2,-115.8 9.7,-190 -67.2,-241 -42.8,-28.3 -289.4,-139.08 -289.4,-139.08 3.6,58.68 -206.6,107.18 -262.3,150.98 -51.6,40.6 -77.5,134.5 -74.4,377.7" /></g><g
         transform="matrix(1.42885,0,0,1.42885,-2535,2265)"
         id="g142"><path
           id="path144"
           style="fill:#2b478b;fill-opacity:1;fill-rule:nonzero;stroke:none"
           d="m 16295.1,6886.74 c 1.1,-30.23 -149.2,-136.12 -401.7,-216.19 -20.3,-6.43 -41.4,-12.66 -63,-18.68 l -0.5,-0.63 c -23.6,-276.31 -87.3,-666.62 -144.8,-1043.29 v -0.14 c -14.9,-97.63 -29.3,-194.35 -42.6,-287.85 -35.1,-247.62 -61.3,-473.25 -64.2,-635.62 v -1.75 c -1.2,-74.47 61.7,-260.35 66.3,-303.32 3,-26.25 5.4,-54.03 7.1,-83.15 6.8,-116.31 4.1,-253.77 -5.3,-400.53 -41.2,-640.38 -210.5,-1459.85 -270.9,-1494.7 -120,-69.43 -338.3,0.07 -449.4,16.3 -45.9,6.79 -82.7,45.99 -80.3,92.32 54.2,1062.88 -101.6,2543.1 -218,3453.06 -3.1,23.66 -6.1,46.89 -9,69.78 -13.9,107.29 -23.1,207.51 -28.9,297.86 -5.3,79.23 -7.9,151.17 -9,213.53 -0.3,19.46 -0.5,38 -0.6,55.57 -0.3,56.97 45.1,429.89 47.1,2138.4 0.1,39.47 32.4,71.77 71.9,71.77 H 15744 c 101,0 182.3,-82.62 181,-183.58 -1.6,-130.33 3.1,-312.31 31.4,-485.97 38.5,-237.23 121.1,-458.85 291.5,-512.19 l 0.4,-0.34 c 0.8,-1.72 5.5,-12.1 13,-29.38 l 0.1,-0.27 c 1.6,-42.9 3.3,-86.56 5.4,-131.06 0.3,-8.92 0.7,-17.92 1.1,-26.93 0.3,-5.31 0.5,-10.52 0.8,-15.83 0.4,-9.01 0.9,-18.1 1.3,-27.21 0.7,-14.97 1.4,-30.04 2.4,-45.31 0.6,-11.94 1.2,-23.89 1.9,-35.93 1.3,-23.13 2.7,-46.54 4.2,-70.14 0.4,-7.59 0.9,-15.07 1.4,-22.75 2,-30.53 4.1,-61.53 6.5,-92.71 0.7,-9.59 1.4,-19.15 2.1,-28.82 0.3,-4.65 0.7,-9.29 1.1,-13.94 1,-12.23 1.9,-24.46 2.9,-36.78 1.1,-12.98 2.2,-26.07 3.3,-39.25 4.2,-47.99 -2,-90.68 -0.7,-124.35" /></g><g
         transform="matrix(1.37237,0,0,1.37237,-2535,2265)"
         id="g146"><path
           id="path148"
           style="fill:#233862;fill-opacity:1;fill-rule:nonzero;stroke:none"
           d="m 16290.2,4055.89 c -42.9,-666.73 -219.1,-1519.92 -282,-1556.21 -124.9,-72.28 -352.3,0.08 -467.9,16.98 -47.8,7.07 -86.1,47.87 -83.7,96.11 56.5,1106.62 -105.7,2647.75 -226.9,3595.16 -3.2,24.63 -6.3,48.82 -9.4,72.65 -14.5,111.7 -24,216.05 -30.1,310.12 57.7,375.62 383,395.73 678,-381.31 -36.5,-257.81 431.8,-2000.7 422,-2153.5" /></g><g
         transform="matrix(1.45126,0,0,1.45126,-2535,2265)"
         id="g150"><path
           id="path152"
           style="fill:#2b478b;fill-opacity:1;fill-rule:nonzero;stroke:none"
           d="m 16055,4641.63 c 8.4,-72.9 93.8,-246.2 104,-287.48 141,-567.16 63.1,-1912.06 -6.8,-1965.81 -108.2,-83.24 -330.4,-43.68 -440.8,-42.17 -45.7,0.62 -86.7,34.18 -90.4,79.66 -86.7,1071.55 -446,2543.24 -677.1,3409.04 -116.3,436.1 -132.9,756.72 -132.9,756.72 0,0 1080,661.72 1196.8,300.23 103.5,-319.86 -17.9,-1690.47 47.2,-2250.19" /></g><g
         transform="matrix(1.40234,0,0,1.40234,-2535,2265)"
         id="g154"><path
           id="path156"
           style="fill:#ffa412;fill-opacity:1;fill-rule:nonzero;stroke:none"
           d="m 15476.6,11142 c 7.7,8.7 15.9,17.1 24.5,25.2 36.5,34.7 80.4,64.6 133.2,86.6 194.8,81.3 356.5,6.2 457.5,-70.6 10,-7.5 19.3,-15.1 28,-22.6 54.9,-46.7 85.6,-88.3 85.6,-88.3 0,0 94.6,-129.1 91.5,-401.3 l -975,-10.4 c 0,0 -14.2,294 154.7,481.4" /></g><g
         transform="matrix(1.38684,0,0,1.38684,-2535,2265)"
         id="g158"><path
           id="path160"
           style="fill:#e27f2b;fill-opacity:1;fill-rule:nonzero;stroke:none"
           d="m 16202.4,10787.4 -54.2,-0.6 c -1.1,15.7 1.6,373.5 135,512.4 10.1,-7.6 8,-6.2 16.8,-13.8 -126.8,-122.3 -97.8,-494.3 -97.6,-498" /></g><g
         transform="matrix(1.40207,0,0,1.40207,-2535,2265)"
         id="g162"><path
           id="path164"
           style="fill:#e27f2b;fill-opacity:1;fill-rule:nonzero;stroke:none"
           d="m 15602.6,10665.6 c -11.1,216.7 -94.1,444.4 -116.5,484.8 7.7,9 9.4,10.6 18,19 15.6,-26.8 142.7,-262.5 156.1,-503.2 l 639.8,6.9 c 0,0 -324.2,-72.7 -519.8,-75.2 -195.6,-2.4 -455.3,64.7 -455.3,64.7 l 277.7,3" /></g><g
         transform="matrix(1.40831,0,0,1.40831,-2535,2265)"
         id="g166"><path
           id="path168"
           style="fill:#2b478b;fill-opacity:1;fill-rule:nonzero;stroke:none"
           d="m 16191.2,9653.42 c 0,0 -328,-382.11 -347.2,-715.53 l 167.1,-8.87 c 0,0 42.1,371.34 288.9,701.55 0,0 -38.6,9.36 -51.5,11.9 -17.2,3.4 -57.3,10.95 -57.3,10.95" /></g><g
         transform="matrix(1.32826,0,0,1.32826,-2535,2265)"
         id="g170"><path
           id="path172"
           style="fill:#2b478b;fill-opacity:1;fill-rule:nonzero;stroke:none"
           d="m 16300,10240.8 c -249.1,-377.01 -275.9,-771.87 -275.9,-771.87 l -178.8,3.08 c 14.7,277.87 189.3,583.49 285.7,728.39 0,0 123.7,31.2 169,40.4" /></g><g
         transform="matrix(1.46097,0,0,1.46097,-2535,2265)"
         id="g174"><path
           id="path176"
           style="fill:#739af0;fill-opacity:1;fill-rule:nonzero;stroke:none"
           d="m 15860.7,7328.18 c -7.9,-377.15 39,-1128.19 39,-1128.19 h 222.5 c 105.1,528.42 142.2,868.41 142.2,1053.83 0,36.53 -0.2,70.56 -0.5,101.99 -1.3,158.34 -5.7,250.32 -5.7,250.32 41.8,959.47 -149.9,1472.54 -210,1543.19 -60.3,70.65 -335.6,134.15 -335.6,134.15 0,0 -91,-265.06 -128.1,-478.3 -37.1,-213.24 291.7,-1109.2 278.2,-1415.43 -0.9,-19.1 -1.5,-39.68 -2,-61.56" /></g><g
         transform="matrix(1.45778,0,0,1.45778,-2535,2265)"
         id="g178"><path
           id="path180"
           style="fill:#d9935c;fill-opacity:1;fill-rule:nonzero;stroke:none"
           d="m 15934.5,6213.56 c 0,0 -47,752.68 -39.1,1130.66 178.4,57.51 322.1,44.88 404.1,27.68 0.3,-31.49 0.5,-65.59 0.5,-102.21 0,-185.82 -37.2,-526.56 -142.5,-1056.13 46.5,-195.16 43.4,-405.75 -37.2,-442.93 -80.4,-37.18 -346.8,102.21 -343.7,164.15 3.1,61.94 157.9,278.78 157.9,278.78" /></g><g
         transform="matrix(1.27436,0,0,1.27436,-2535,2265)"
         id="g182"><path
           id="path184"
           style="fill:#d9935c;fill-opacity:1;fill-rule:nonzero;stroke:none"
           d="m 14737.8,8103.44 c 24.9,91.19 43.3,141.72 106.1,186.01 91.3,64.36 199.5,46.94 280.2,32.77 61.7,-10.84 126.4,9.87 153.4,20.25 142.9,95.25 501.7,291.67 680.4,379.72 121.8,-70.69 271.6,-210.55 342.1,-483.51 -275,-121.28 -876.8,-119.15 -991.3,-92.68 0,0 -106.1,-77.1 -186.9,-84.18 -30.5,-2.68 -69,6.2 -105,18.26 -56.8,18.99 -117.6,0.08 -158.4,-50.31 -39.1,-48.49 -81.2,-48.42 -102.4,-48.42 -32.9,0 -33.8,64.69 -18.2,122.09" /></g><g
         transform="matrix(1.18248,0,0,1.18248,-2535,2265)"
         id="g186"><path
           id="path188"
           style="fill:#2b478b;fill-opacity:1;fill-rule:nonzero;stroke:none"
           d="m 15522,2855.11 h -2048 c -35,0 -113.5,28.41 -113.5,63.42 0,35.01 263.4,63.43 298.4,63.43 h 1736.2 v 5369.91 c 0,219.27 178.4,397.62 397.6,397.62 h 443.9 c 35,0 63.4,-28.39 63.4,-63.42 0,-35.03 -28.4,-63.43 -63.4,-63.43 h -443.9 c -149.3,0 -270.7,-121.45 -270.7,-270.77 V 2855.11" /></g><g
         transform="matrix(1.05364,0,0,1.05364,-2535,2265)"
         id="g190"><path
           id="path192"
           style="fill:#2b478b;fill-opacity:1;fill-rule:nonzero;stroke:none"
           d="m 15426.8,3204.21 h -1667.2 c -39.3,0 -71.2,31.89 -71.2,71.19 0,39.29 31.9,71.18 71.2,71.18 h 1524.9 v 6026.51 c 0,246.09 200.1,446.24 446.1,446.24 h 498.2 c 39.3,0 71.2,-31.86 71.2,-71.17 0,-39.31 -31.9,-71.19 -71.2,-71.19 h -498.2 c -167.5,0 -303.8,-136.3 -303.8,-303.88 V 3204.21" /></g><g
         transform="matrix(1.12286,0,0,1.12286,-2535,2265)"
         id="g194"><path
           id="path196"
           style="fill:#2b478b;fill-opacity:1;fill-rule:nonzero;stroke:none"
           d="M 16236.2,8228.41 H 14452 c -35.2,0 -63.8,29.93 -63.8,66.8 0,36.87 28.6,66.79 63.8,66.79 h 1784.2 c 35.3,0 63.8,-29.92 63.8,-66.79 0,-36.87 -28.5,-66.8 -63.8,-66.8" /></g><g
         transform="matrix(1.19311,0,0,1.19311,-2535,2265)"
         id="g198"><path
           id="path200"
           style="fill:#963333;fill-opacity:1;fill-rule:nonzero;stroke:none"
           d="m 16195.2,8503.89 h -543.3 c -57.8,0 -104.7,46.91 -104.7,104.77 0,57.87 46.9,104.77 104.7,104.77 h 543.3 c 57.9,0 104.8,-46.9 104.8,-104.77 0,-57.86 -46.9,-104.77 -104.8,-104.77" /></g><g
         transform="matrix(1.15028,0,0,1.15028,-2535,2265)"
         id="g202"><path
           id="path204"
           style="fill:#2b478b;fill-opacity:1;fill-rule:nonzero;stroke:none"
           d="m 16234.8,8994.43 c -205.2,0 -375.4,-151.94 -404.3,-349.2 h 132.5 c 27.3,124.95 138.8,218.8 271.8,218.8 36,0 65.2,29.2 65.2,65.2 0,36.02 -29.2,65.2 -65.2,65.2" /></g><g
         transform="matrix(1.06428,0,0,1.06428,-2535,2265)"
         id="g206"><path
           id="path208"
           style="fill:#963333;fill-opacity:1;fill-rule:nonzero;stroke:none"
           d="m 16182.5,9533.32 h -609 c -64.8,0 -117.5,52.59 -117.5,117.45 0,64.87 52.7,117.45 117.5,117.45 h 609 c 64.9,0 117.5,-52.58 117.5,-117.45 0,-64.86 -52.6,-117.45 -117.5,-117.45" /></g><g
         transform="matrix(1.02144,0,0,1.02144,-2535,2265)"
         id="g210"><path
           id="path212"
           style="fill:#2b478b;fill-opacity:1;fill-rule:nonzero;stroke:none"
           d="m 16226.6,10128.9 c -231.1,0 -422.8,-171.1 -455.4,-393.25 h 149.2 c 30.9,140.71 156.4,246.4 306.2,246.4 40.5,0 73.4,32.85 73.4,73.45 0,40.5 -32.9,73.4 -73.4,73.4" /></g><g
         transform="matrix(1.12167,0,0,1.12167,-2535,2265)"
         id="g214"><path
           id="path216"
           style="fill:#d3671e;fill-opacity:1;fill-rule:nonzero;stroke:none"
           d="m 14068.5,5120.76 2225.3,39.23 6.2,-2016.37 h -2225.4 l -6.1,1977.14" /></g><g
         transform="matrix(1.0451,0,0,1.0451,-2535,2265)"
         id="g218"><path
           id="path220"
           style="fill:#f1a34f;fill-opacity:1;fill-rule:nonzero;stroke:none"
           d="m 14382.6,5492.31 1912.1,7.36 5.3,-2126.97 -1912.2,1.24 -5.2,2118.37" /></g><path
         id="path222"
         style="fill:#edb78b;fill-opacity:1;fill-rule:nonzero;stroke:none"
         d="m 12498,7304.4 v 0 l -1.8,700.6 1.8,-700.6" /><g
         transform="matrix(1.0451,0,0,1.0451,-2535,2265)"
         id="g224"><path
           id="path226"
           style="fill:#e78b37;fill-opacity:1;fill-rule:nonzero;stroke:none"
           d="m 16300,3372.7 v 0 l -1915.7,1449.24 -1.7,670.37 331.6,1.24 v -0.29 l 1580.5,6.13 5.3,-2126.69" /></g><g
         transform="matrix(1.17593,0,0,1.17593,-2535,2265)"
         id="g228"><path
           id="path230"
           style="fill:#233862;fill-opacity:1;fill-rule:nonzero;stroke:none"
           d="m 15751.5,3996.32 h -255.1 c -302.9,0 -548.5,-300.79 -548.5,-671.81 0,-371.02 245.6,-671.81 548.5,-671.81 h 255.1 c 302.9,0 548.5,300.79 548.5,671.81 0,371.02 -245.6,671.81 -548.5,671.81" /></g><g
         transform="matrix(1.17593,0,0,1.17593,-2535,2265)"
         id="g232"><path
           id="path234"
           style="fill:#2b478b;fill-opacity:1;fill-rule:nonzero;stroke:none"
           d="m 16300,3324.51 c 0,-371.02 -245.6,-671.81 -548.5,-671.81 -302.9,0 -548.5,300.79 -548.5,671.81 0,371.02 245.6,671.81 548.5,671.81 302.9,0 548.5,-300.79 548.5,-671.81" /></g><g
         transform="matrix(1.16141,0,0,1.16141,-2535,2265)"
         id="g236"><path
           id="path238"
           style="fill:#4a75cb;fill-opacity:1;fill-rule:nonzero;stroke:none"
           d="m 16300,3366.09 c 0,-237.72 -157.3,-430.51 -351.5,-430.51 -194.1,0 -351.4,192.79 -351.4,430.51 0,237.82 157.3,430.52 351.4,430.52 194.2,0 351.5,-192.7 351.5,-430.52" /></g><g
         transform="matrix(1.17184,0,0,1.17184,-2535,2265)"
         id="g240"><path
           id="path242"
           style="fill:#d3671e;fill-opacity:1;fill-rule:nonzero;stroke:none"
           d="m 13848.8,7064.95 2451.2,7.51 -6.7,-2162.07 -2437.8,-7.5 -6.7,2162.06" /></g><g
         transform="matrix(1.08373,0,0,1.08373,-2535,2265)"
         id="g244"><path
           id="path246"
           style="fill:#f1a34f;fill-opacity:1;fill-rule:nonzero;stroke:none"
           d="m 14183.9,7635.3 2110.3,8.11 5.8,-2337.84 -2110.3,-8.13 -5.8,2337.86" /></g><g
         transform="matrix(1.08373,0,0,1.08373,-2535,2265)"
         id="g248"><path
           id="path250"
           style="fill:#e78b37;fill-opacity:1;fill-rule:nonzero;stroke:none"
           d="m 16300,5305.57 -2114.3,1582.31 -1.8,747.42 2110.3,8.11 5.8,-2337.84" /></g><g
         transform="matrix(1.19685,0,0,1.19685,-2535,2265)"
         id="g252"><path
           id="path254"
           style="fill:#d9935c;fill-opacity:1;fill-rule:nonzero;stroke:none"
           d="m 16300,8673.5 c 0,0 -203.3,-138.41 -257.1,-104.29 -53.7,34.11 37.6,111.4 -48.7,139.25 -86.3,27.85 305.8,-34.96 305.8,-34.96" /></g><g
         transform="matrix(1.72693,0,0,1.72693,-2535,2265)"
         id="g256"><path
           id="path258"
           style="fill:#2e3552;fill-opacity:1;fill-rule:nonzero;stroke:none"
           d="M 16282.7,1772.1 H 1089.09 c -9.49,0 -17.25,7.76 -17.25,17.26 v 5.9 c 0,9.5 7.76,17.26 17.25,17.26 H 16282.7 c 9.5,0 17.3,-7.76 17.3,-17.26 v -5.9 c 0,-9.5 -7.8,-17.26 -17.3,-17.26" /></g></g></g></svg>
