<?xml version="1.0" encoding="UTF-8" standalone="no"?>
<svg
   viewBox="0 0 3000 1750"
   height="1750"
   width="3000"
   xml:space="preserve"
   id="svg2"
   version="1.1"
   sodipodi:docname="tedious.svg"
   inkscape:version="1.1.2 (b8e25be8, 2022-02-05)"
   xmlns:inkscape="http://www.inkscape.org/namespaces/inkscape"
   xmlns:sodipodi="http://sodipodi.sourceforge.net/DTD/sodipodi-0.dtd"
   xmlns="http://www.w3.org/2000/svg"
   xmlns:svg="http://www.w3.org/2000/svg"
   xmlns:rdf="http://www.w3.org/1999/02/22-rdf-syntax-ns#"
   xmlns:cc="http://creativecommons.org/ns#"
   xmlns:dc="http://purl.org/dc/elements/1.1/"><sodipodi:namedview
     id="namedview1850"
     pagecolor="#ffffff"
     bordercolor="#666666"
     borderopacity="1.0"
     inkscape:pageshadow="2"
     inkscape:pageopacity="0.0"
     inkscape:pagecheckerboard="0"
     showgrid="false"
     inkscape:snap-global="true"
     inkscape:snap-bbox="false"
     inkscape:snap-text-baseline="true"
     inkscape:snap-page="false"
     height="2566.6667px"
     inkscape:zoom="0.14023505"
     inkscape:cx="1308.5174"
     inkscape:cy="2207.0089"
     inkscape:window-width="1800"
     inkscape:window-height="1097"
     inkscape:window-x="0"
     inkscape:window-y="44"
     inkscape:window-maximized="1"
     inkscape:current-layer="g12" /><metadata
     id="metadata8"><rdf:RDF><cc:Work
         rdf:about=""><dc:format>image/svg+xml</dc:format><dc:type
           rdf:resource="http://purl.org/dc/dcmitype/StillImage" /></cc:Work></rdf:RDF></metadata><defs
     id="defs6" /><g
     transform="matrix(1.3333333,0,0,-1.3333333,0,2666.6667)"
     id="g10"><g
       transform="scale(0.1)"
       id="g12"><g
         transform="scale(1.80229)"
         id="g18"><path
           id="path20"
           style="fill:#ebf3fa;fill-opacity:0;fill-rule:nonzero;stroke:none"
           d="m 14977.4,1811.53 c -859.5,0 -13380.62,-2.61 -13387.85,16.31 l -1.23,2.38 c 0,0 -1.22,2.33 -1.22,3.5 -4.79,9.49 -1929.22,2667.71 1062.55,4518.23 1170.59,724.06 -73.26,1202.04 857.6,2008.09 614.63,532.2 1261.52,420.37 1926.31,308.54 492.28,-82.81 994.41,-165.62 1500.49,13.08 210.23,74.14 421.13,193.49 632.25,376.62 118.85,102.98 249.07,193.04 388.5,270.8 21.42,11.96 43,23.65 64.81,35 83.5,43.48 170.06,82.78 259.22,118.13 59.87,23.71 120.91,45.64 183.1,65.79 h 0.06 c 98.6,32.01 199.91,59.61 303.39,82.93 146.98,33.18 298.23,57.84 452.54,74.54 67.3,7.35 135.16,13.08 203.51,17.42 1329.17,83.89 2824.97,-387.97 3596.97,-1077.63 155.4,-138.88 862.1,-857.46 305,-1845.14 -351.7,-623.59 1121.7,-1219.17 1645.4,-1931.27 1331.2,-1810.47 20.7,-3033.74 8.6,-3057.32" /></g><path
         id="path22"
         style="fill:#d9e8fe;fill-opacity:1;fill-rule:nonzero;stroke:none"
         d="m 11808.415,14153.492 -1379.1,-291 -291.1,1379.1 1379.2,291 291,-1379.1" /><path
         id="path24"
         style="fill:#f5fbff;fill-opacity:1;fill-rule:nonzero;stroke:none"
         d="m 11614.115,13421.292 -1321.9,489.4 489.3,1321.8 1321.9,-489.3 -489.3,-1321.9" /><path
         id="path26"
         style="fill:#8fadef;fill-opacity:1;fill-rule:nonzero;stroke:none"
         d="M 10517.015,16224.792 H 8712.7155 c -86.3,0 -157,70.7 -157,157 v 1891.7 c 0,86.3 70.7,157 157,157 h 1804.2995 c 86.3,0 157,-70.7 157,-157 v -1891.7 c 0,-86.3 -70.7,-157 -157,-157" /><path
         id="path28"
         style="fill:#dfebfd;fill-opacity:1;fill-rule:nonzero;stroke:none"
         d="M 10438.815,16320.392 H 8790.9155 c -78.9,0 -143.4,64.5 -143.4,143.4 v 1727.7 c 0,78.9 64.5,143.4 143.4,143.4 h 1647.8995 c 78.9,0 143.4,-64.5 143.4,-143.4 v -1727.7 c 0,-78.9 -64.5,-143.4 -143.4,-143.4" /><path
         id="path30"
         style="fill:#8fadef;fill-opacity:1;fill-rule:nonzero;stroke:none"
         d="m 9571.015,18133.592 c 0,26 19.6,47.1 43.8,47.1 24.3,0 43.9,-21.1 43.9,-47.1 0,-26 -19.6,-47.1 -43.9,-47.1 -24.2,0 -43.8,21.1 -43.8,47.1" /><path
         id="path32"
         style="fill:#8fadef;fill-opacity:1;fill-rule:nonzero;stroke:none"
         d="m 9925.015,18066.992 c 11.8,22.8 38.5,31 59.7,18.3 21.2,-12.6 28.8,-41.3 17,-64 -11.7,-22.7 -38.5,-30.9 -59.6,-18.3 -21.2,12.7 -28.8,41.3 -17.1,64" /><path
         id="path34"
         style="fill:#8fadef;fill-opacity:1;fill-rule:nonzero;stroke:none"
         d="m 10228.415,17808.392 c 20.3,14.1 47.5,7.8 60.6,-14 13.1,-21.9 7.3,-51 -13.1,-65.1 -20.3,-14.1 -47.5,-7.9 -60.6,14 -13.2,21.9 -7.3,51 13.1,65.1" /><path
         id="path36"
         style="fill:#8fadef;fill-opacity:1;fill-rule:nonzero;stroke:none"
         d="m 10378.615,17408.092 c 24.2,0 43.9,-21.1 43.9,-47.1 0,-26 -19.7,-47.1 -43.9,-47.1 -24.2,0 -43.9,21.1 -43.9,47.1 0,26 19.7,47.1 43.9,47.1" /><path
         id="path38"
         style="fill:#8fadef;fill-opacity:1;fill-rule:nonzero;stroke:none"
         d="m 10301.915,16943.492 c 17.1,-18.4 17.1,-48.2 0,-66.6 -17.1,-18.4 -44.9,-18.4 -62.1,0 -17.1,18.4 -17.1,48.2 0,66.6 17.2,18.4 45,18.4 62.1,0" /><path
         id="path40"
         style="fill:#8fadef;fill-opacity:1;fill-rule:nonzero;stroke:none"
         d="m 10026.415,16646.992 c 17.1,-18.4 17.1,-48.2 0,-66.6 -17.2,-18.4 -45,-18.4 -62.1,0 -17.1,18.4 -17.1,48.2 0,66.6 17.1,18.4 44.9,18.4 62.1,0" /><path
         id="path42"
         style="fill:#8fadef;fill-opacity:1;fill-rule:nonzero;stroke:none"
         d="m 9571.015,16494.192 c 0,26 19.6,47 43.8,47 24.3,0 43.9,-21 43.9,-47 0,-26.1 -19.6,-47.2 -43.9,-47.2 -24.2,0 -43.8,21.1 -43.8,47.2" /><path
         id="path44"
         style="fill:#8fadef;fill-opacity:1;fill-rule:nonzero;stroke:none"
         d="m 9303.3155,18066.992 c -11.8,22.8 -38.5,31 -59.7,18.3 -21.2,-12.6 -28.8,-41.3 -17,-64 11.7,-22.7 38.4,-30.9 59.6,-18.3 21.2,12.7 28.8,41.3 17.1,64" /><path
         id="path46"
         style="fill:#8fadef;fill-opacity:1;fill-rule:nonzero;stroke:none"
         d="m 8999.9155,17808.392 c -20.3,14.1 -47.5,7.8 -60.6,-14 -13.2,-21.9 -7.3,-51 13.1,-65.1 20.3,-14.1 47.5,-7.9 60.6,14 13.2,21.9 7.3,51 -13.1,65.1" /><path
         id="path48"
         style="fill:#8fadef;fill-opacity:1;fill-rule:nonzero;stroke:none"
         d="m 8849.7155,17408.092 c -24.2,0 -43.9,-21.1 -43.9,-47.1 0,-26 19.7,-47.1 43.9,-47.1 24.2,0 43.9,21.1 43.9,47.1 0,26 -19.7,47.1 -43.9,47.1" /><path
         id="path50"
         style="fill:#8fadef;fill-opacity:1;fill-rule:nonzero;stroke:none"
         d="m 8926.4155,16943.492 c -17.1,-18.4 -17.1,-48.2 0,-66.6 17.1,-18.4 44.9,-18.4 62.1,0 17.1,18.4 17.1,48.2 0,66.6 -17.2,18.4 -45,18.4 -62.1,0" /><path
         id="path52"
         style="fill:#8fadef;fill-opacity:1;fill-rule:nonzero;stroke:none"
         d="m 9201.9155,16646.992 c -17.1,-18.4 -17.1,-48.2 0,-66.6 17.2,-18.4 45,-18.4 62.1,0 17.1,18.4 17.1,48.2 0,66.6 -17.1,18.4 -44.9,18.4 -62.1,0" /><path
         id="path54"
         style="fill:#8fadef;fill-opacity:1;fill-rule:nonzero;stroke:none"
         d="m 9603.015,17360.992 c 0,26 19.7,47.1 43.9,47.1 24.2,0 43.9,-21.1 43.9,-47.1 0,-26 -19.7,-47.1 -43.9,-47.1 -24.2,0 -43.9,21.1 -43.9,47.1" /><path
         id="path56"
         style="fill:#8fadef;fill-opacity:1;fill-rule:nonzero;stroke:none"
         d="m 9652.915,17360.992 h -12 v 588.3 h 12 v -588.3" /><path
         id="path58"
         style="fill:#8fadef;fill-opacity:1;fill-rule:nonzero;stroke:none"
         d="m 9652.515,17346.592 -22.2,30.4 290.6,244.8 22.2,-30.3 -290.6,-244.9" /><g
         transform="scale(1.12202)"
         id="g60"><path
           id="path62"
           style="fill:#9fc1f4;fill-opacity:1;fill-rule:nonzero;stroke:none"
           d="m 15913.6,13568 -52,28.5 c -55.4,30.4 -75.8,100.2 -45.4,155.6 l 239,435.6 c 30.4,55.4 100.2,75.8 155.6,45.4 l 74.3,-40.8 c 10.9,-6 14.9,-19.6 8.9,-30.5 -5.9,-10.8 -19.6,-14.8 -30.5,-8.8 l -74.3,40.7 c -33.8,18.5 -76.2,6.2 -94.7,-27.6 l -239,-435.6 c -18.4,-33.7 -6,-76.2 27.7,-94.7 l 51.9,-28.4 c 33.7,-18.6 76.2,-6.2 94.7,27.6 l 158.6,289.1 c 6,10.9 19.6,14.8 30.5,8.9 10.9,-6 14.8,-19.6 8.8,-30.5 l -158.5,-289.1 c -30.4,-55.4 -100.3,-75.8 -155.6,-45.4" /></g><g
         transform="matrix(1.12894,0,0,1.12894,-3851.4845,3728.592)"
         id="g64"><path
           id="path66"
           style="fill:#9fc1f4;fill-opacity:1;fill-rule:nonzero;stroke:none"
           d="m 15595.6,13030.2 -92.5,50.8 c -85.9,47.1 -114.7,160.2 -64.2,252.2 l 357,650.9 c 5.9,10.8 19.5,14.7 30.3,8.8 10.8,-5.9 14.7,-19.5 8.8,-30.3 l -357,-650.8 c -38.6,-70.5 -17.7,-156.5 46.6,-191.7 l 92.5,-50.8 c 64.3,-35.3 148.1,-6.6 186.7,63.8 l 406.6,741.4 c 38.7,70.4 17.8,156.4 -46.5,191.7 -10.9,5.9 -14.8,19.5 -8.9,30.3 5.9,10.8 19.5,14.7 30.3,8.8 85.9,-47.1 114.7,-160.3 64.2,-252.3 l -406.7,-741.3 c -50.4,-92 -161.3,-128.6 -247.2,-81.5" /></g><g
         transform="matrix(1.38838,0,0,1.38838,-3851.4845,3728.592)"
         id="g68"><path
           id="path70"
           style="fill:#ff8c64;fill-opacity:1;fill-rule:nonzero;stroke:none"
           d="m 15809.1,9460.34 33.2,34.43 c 35.5,36.75 94.3,37.79 131,2.33 l 288.9,-278.81 c 36.7,-35.47 37.8,-94.23 2.3,-130.99 l -47.6,-49.32 c -6.9,-7.2 -18.5,-7.4 -25.7,-0.45 -7.2,6.95 -7.3,18.43 -0.4,25.64 l 47.6,49.31 c 21.6,22.37 21,58.13 -1.4,79.72 l -288.9,278.81 c -22.3,21.58 -58.1,20.95 -79.8,-1.42 l -33.2,-34.43 c -21.6,-22.37 -20.9,-58.13 1.5,-79.73 l 191.7,-185.07 c 7.2,-6.96 7.4,-18.44 0.5,-25.64 -7,-7.2 -18.4,-7.41 -25.6,-0.45 l -191.8,185.08 c -36.8,35.47 -37.8,94.23 -2.3,130.99" /></g><g
         transform="matrix(1.3819,0,0,1.3819,-3851.4845,3728.592)"
         id="g72"><path
           id="path74"
           style="fill:#ff8c64;fill-opacity:1;fill-rule:nonzero;stroke:none"
           d="m 15572.2,9776.03 59.9,62.01 c 55.6,57.57 150.9,55.98 212.6,-3.56 l 436.3,-421.13 c 7.3,-6.98 7.5,-18.51 0.5,-25.75 -7,-7.24 -18.5,-7.44 -25.7,-0.46 l -436.4,421.13 c -47.2,45.58 -119.5,47.6 -161.1,4.47 l -59.9,-62.01 c -41.6,-43.12 -37,-115.29 10.2,-160.88 l 497,-479.69 c 47.3,-45.58 119.6,-47.59 161.2,-4.47 7,7.24 18.5,7.44 25.7,0.46 7.3,-6.98 7.5,-18.52 0.5,-25.76 -55.5,-57.57 -151,-55.98 -212.6,3.56 l -497.1,479.69 c -61.7,59.54 -66.6,154.81 -11.1,212.39" /></g><path
         id="path76"
         style="fill:#d9e8fe;fill-opacity:1;fill-rule:nonzero;stroke:none"
         d="m 8957.0155,11993.192 c 0,0 -82.3,1360.3 -317.5,1786.1 H 9877.815 v -1783.3 l -920.7995,-2.8" /><path
         id="path78"
         style="fill:#bbc9f9;fill-opacity:1;fill-rule:nonzero;stroke:none"
         d="m 9576.215,11993.192 c 0,0 -82.3,1360.3 -317.4995,1786.1 h 1238.2995 v -1783.3 l -920.8,-2.8" /><path
         id="path80"
         style="fill:#35488b;fill-opacity:1;fill-rule:nonzero;stroke:none"
         d="m 11240.615,10644.692 h -1198.5 v 3866.3 h 1198.5 v -3866.3" /><g
         transform="matrix(1.10321,0,0,1.10321,-3851.4845,3728.592)"
         id="g82"><path
           id="path84"
           style="fill:#2c3a64;fill-opacity:1;fill-rule:nonzero;stroke:none"
           d="M 16300,6269.08 H 13680.2 V 9773.71 H 16300 V 6269.08" /></g><path
         id="path86"
         style="fill:#dde7fe;fill-opacity:1;fill-rule:nonzero;stroke:none"
         d="m 10441.315,14028.092 c 0,110.5 89.6,200.1 200,200.1 110.5,0 200.1,-89.6 200.1,-200.1 0,-110.4 -89.6,-200 -200.1,-200 -110.4,0 -200,89.6 -200,200" /><path
         id="path88"
         style="fill:#6c7aff;fill-opacity:1;fill-rule:nonzero;stroke:none"
         d="m 10499.915,14028.092 c 0,78.2 63.3,141.5 141.4,141.5 78.2,0 141.5,-63.3 141.5,-141.5 0,-78.1 -63.3,-141.4 -141.5,-141.4 -78.1,0 -141.4,63.3 -141.4,141.4" /><path
         id="path90"
         style="fill:#8fadef;fill-opacity:1;fill-rule:nonzero;stroke:none"
         d="m 10927.615,12527.892 h -563.7 v 1018.3 h 563.7 v -1018.3" /><g
         transform="matrix(1.12044,0,0,1.12044,-3851.4845,3728.592)"
         id="g92"><path
           id="path94"
           style="fill:#cde2fc;fill-opacity:1;fill-rule:nonzero;stroke:none"
           d="m 16300,7378.74 h -2052.6 v 661.61 H 16300 v -661.61" /></g><g
         transform="matrix(1.26153,0,0,1.26153,-3851.4845,3728.592)"
         id="g96"><path
           id="path98"
           style="fill:#a4c8f4;fill-opacity:1;fill-rule:nonzero;stroke:none"
           d="m 16300,6553.45 h -1823.1 v 587.62 H 16300 v -587.62" /></g><g
         transform="matrix(1.01455,0,0,1.01455,-3851.4845,3728.592)"
         id="g100"><path
           id="path102"
           style="fill:#8fadef;fill-opacity:1;fill-rule:nonzero;stroke:none"
           d="m 16300,8506.22 h -565.7 v 15.87 h 565.7 v -15.87" /></g><g
         transform="matrix(1.12044,0,0,1.12044,-3851.4845,3728.592)"
         id="g104"><path
           id="path106"
           style="fill:#8fadef;fill-opacity:1;fill-rule:nonzero;stroke:none"
           d="m 16300,7905.94 h -1414.8 v 14.37 H 16300 v -14.37" /></g><g
         transform="matrix(1.04159,0,0,1.04159,-3851.4845,3728.592)"
         id="g108"><path
           id="path110"
           style="fill:#8fadef;fill-opacity:1;fill-rule:nonzero;stroke:none"
           d="m 16300,8093.79 h -974.1 v 15.45 h 974.1 v -15.45" /></g><g
         transform="matrix(1.07667,0,0,1.07667,-3851.4845,3728.592)"
         id="g112"><path
           id="path114"
           style="fill:#d9e8fe;fill-opacity:1;fill-rule:nonzero;stroke:none"
           d="m 16300,8367.15 h -2136 v 688.51 h 2136 v -688.51" /></g><g
         transform="matrix(1.21777,0,0,1.21777,-3851.4845,3728.592)"
         id="g116"><path
           id="path118"
           style="fill:#bbc9f9;fill-opacity:1;fill-rule:nonzero;stroke:none"
           d="m 16300,7397.68 h -1888.6 v 608.74 H 16300 v -608.74" /></g><path
         id="path120"
         style="fill:#8fadef;fill-opacity:1;fill-rule:nonzero;stroke:none"
         d="m 11972.415,13099.892 h -573.9 v 16.1 h 573.9 v -16.1" /><g
         transform="matrix(1.07667,0,0,1.07667,-3851.4845,3728.592)"
         id="g122"><path
           id="path124"
           style="fill:#8fadef;fill-opacity:1;fill-rule:nonzero;stroke:none"
           d="m 16300,8915.78 h -1472.3 v 14.96 H 16300 v -14.96" /></g><path
         id="path126"
         style="fill:#8fadef;fill-opacity:1;fill-rule:nonzero;stroke:none"
         d="m 12413.115,12900.292 h -1014.6 v 16.1 h 1014.6 v -16.1" /><g
         transform="matrix(1.15564,0,0,1.15564,-3851.4845,3728.592)"
         id="g128"><path
           id="path130"
           style="fill:#d4e5fd;fill-opacity:1;fill-rule:nonzero;stroke:none"
           d="m 16300,9603.87 h -1990.1 v 641.53 H 16300 v -641.53" /></g><g
         transform="matrix(1.29674,0,0,1.29674,-3851.4845,3728.592)"
         id="g132"><path
           id="path134"
           style="fill:#a4c8f4;fill-opacity:1;fill-rule:nonzero;stroke:none"
           d="m 16300,8558.88 h -1773.6 v 571.69 H 16300 v -571.69" /></g><g
         transform="matrix(1.04976,0,0,1.04976,-3851.4845,3728.592)"
         id="g136"><path
           id="path138"
           style="fill:#8fadef;fill-opacity:1;fill-rule:nonzero;stroke:none"
           d="m 16300,10918 h -546.7 v 15.3 h 546.7 v -15.3" /></g><g
         transform="matrix(1.15564,0,0,1.15564,-3851.4845,3728.592)"
         id="g140"><path
           id="path142"
           style="fill:#8fadef;fill-opacity:1;fill-rule:nonzero;stroke:none"
           d="m 16300,10115 h -1371.7 v 14 H 16300 v -14" /></g><g
         transform="matrix(1.0768,0,0,1.0768,-3851.4845,3728.592)"
         id="g144"><path
           id="path146"
           style="fill:#8fadef;fill-opacity:1;fill-rule:nonzero;stroke:none"
           d="m 16300,10468.1 h -942.2 v 14.9 h 942.2 v -14.9" /></g><g
         transform="matrix(1.11188,0,0,1.11188,-3851.4845,3728.592)"
         id="g148"><path
           id="path150"
           style="fill:#f5fbff;fill-opacity:1;fill-rule:nonzero;stroke:none"
           d="m 16300,10648.6 h -2068.4 v 666.7 H 16300 v -666.7" /></g><g
         transform="matrix(1.25298,0,0,1.25298,-3851.4845,3728.592)"
         id="g152"><path
           id="path154"
           style="fill:#bdd8ff;fill-opacity:1;fill-rule:nonzero;stroke:none"
           d="m 16300,9449.46 h -1835.5 v 591.64 H 16300 v -591.64" /></g><g
         transform="matrix(1.006,0,0,1.006,-3851.4845,3728.592)"
         id="g156"><path
           id="path158"
           style="fill:#8fadef;fill-opacity:1;fill-rule:nonzero;stroke:none"
           d="m 16300,12129.8 h -570.5 v 16 h 570.5 v -16" /></g><g
         transform="matrix(1.13982,0,0,1.13982,-3851.4845,3728.592)"
         id="g160"><path
           id="path162"
           style="fill:#8fadef;fill-opacity:1;fill-rule:nonzero;stroke:none"
           d="m 16300,10705.8 h -503.5 v 14.1 h 503.5 v -14.1" /></g><g
         transform="matrix(1.18885,0,0,1.18885,-3851.4845,3728.592)"
         id="g164"><path
           id="path166"
           style="fill:#8fadef;fill-opacity:1;fill-rule:nonzero;stroke:none"
           d="m 16300,10456.1 h -1333.4 v 13.6 H 16300 v -13.6" /></g><g
         transform="matrix(1.03304,0,0,1.03304,-3851.4845,3728.592)"
         id="g168"><path
           id="path170"
           style="fill:#8fadef;fill-opacity:1;fill-rule:nonzero;stroke:none"
           d="m 16300,11619.2 h -982.2 v 15.5 h 982.2 v -15.5" /></g><g
         transform="matrix(1.27083,0,0,1.27083,-3851.4845,3728.592)"
         id="g172"><path
           id="path174"
           style="fill:#bdd8ff;fill-opacity:1;fill-rule:nonzero;stroke:none"
           d="M 14490.3,7672.2 H 16300 V 8734.16 H 14490.3 V 7672.2" /></g><g
         transform="matrix(1.12974,0,0,1.12974,-3851.4845,3728.592)"
         id="g176"><path
           id="path178"
           style="fill:#f5fbff;fill-opacity:1;fill-rule:nonzero;stroke:none"
           d="M 14264.2,8630.38 H 16300 V 9824.96 H 14264.2 V 8630.38" /></g><g
         transform="matrix(1.27083,0,0,1.27083,-3851.4845,3728.592)"
         id="g180"><path
           id="path182"
           style="fill:#8fadef;fill-opacity:1;fill-rule:nonzero;stroke:none"
           d="m 16300,8194.62 h -451.6 v 17.1 h 451.6 v -17.1" /></g><g
         transform="matrix(1.22699,0,0,1.22699,-3851.4845,3728.592)"
         id="g184"><path
           id="path186"
           style="fill:#35488b;fill-opacity:1;fill-rule:nonzero;stroke:none"
           d="m 16300,8829.91 h -2576.6 v 9.59 H 16300 v -9.59" /></g><g
         transform="matrix(1.27083,0,0,1.27083,-3851.4845,3728.592)"
         id="g188"><path
           id="path190"
           style="fill:#8fadef;fill-opacity:1;fill-rule:nonzero;stroke:none"
           d="m 16300,7908.7 h -798.4 v 17.1 h 798.4 v -17.1" /></g><g
         transform="matrix(1.15565,0,0,1.15565,-3851.4845,3728.592)"
         id="g192"><path
           id="path194"
           style="fill:#35488b;fill-opacity:1;fill-rule:nonzero;stroke:none"
           d="m 16300,9165.8 h -943.2 v 10.17 h 943.2 v -10.17" /></g><g
         transform="matrix(1.33161,0,0,1.33161,-3851.4845,3728.592)"
         id="g196"><path
           id="path198"
           style="fill:#f77d48;fill-opacity:1;fill-rule:nonzero;stroke:none"
           d="M 16300,2449.45 H 11214.9 V 6206.49 H 16300 V 2449.45" /></g><g
         transform="matrix(1.10899,0,0,1.10899,-3851.4845,3728.592)"
         id="g200"><path
           id="path202"
           style="fill:#ff8c64;fill-opacity:1;fill-rule:nonzero;stroke:none"
           d="M 16300,2941.15 H 11458.8 V 7452.38 H 16300 V 2941.15" /></g><path
         id="path204"
         style="fill:#2c3a64;fill-opacity:1;fill-rule:nonzero;stroke:none"
         d="m 11929.915,11176.492 h -1390.7 c -86.1,0 -156.6,70.4 -156.6,156.5 v 20.3 c 0,86.1 70.5,156.5 156.6,156.5 h 1390.7 c 86.1,0 156.5,-70.4 156.5,-156.5 v -20.3 c 0,-86.1 -70.4,-156.5 -156.5,-156.5" /><path
         id="path206"
         style="fill:#9fc1f4;fill-opacity:1;fill-rule:nonzero;stroke:none"
         d="m 12063.215,8916.392 -1267.8,222.6 222.6,1267.8 1267.8,-222.6 -222.6,-1267.8" /><path
         id="path208"
         style="fill:#8fadef;fill-opacity:1;fill-rule:nonzero;stroke:none"
         d="m 12249.915,9979.292 -1267.9,222.7 36,204.8 1267.8,-222.6 -35.9,-204.9" /><g
         transform="matrix(1.08981,0,0,1.08981,-3851.4845,3728.592)"
         id="g210"><path
           id="path212"
           style="fill:#ffb93e;fill-opacity:1;fill-rule:nonzero;stroke:none"
           d="m 16300,5924.98 -1142.4,-300.05 -300.1,1142.4 1142.4,300.05 300.1,-1142.4" /></g><g
         transform="matrix(1.07299,0,0,1.07299,-3851.4845,3728.592)"
         id="g214"><path
           id="path216"
           style="fill:#ffa412;fill-opacity:1;fill-rule:nonzero;stroke:none"
           d="m 16300,6990.67 -1160.3,-304.76 -49.2,187.52 1160.3,304.75 49.2,-187.51" /></g><path
         id="path218"
         style="fill:#8fadef;fill-opacity:1;fill-rule:nonzero;stroke:none"
         d="m 8888.2155,13384.592 c -34.8,192.9 -135.7,390 -136.7,392 l 10.5,5.3 c 1,-1.9 102.7,-200.6 137.7,-395.2 l -11.5,-2.1" /><path
         id="path220"
         style="fill:#8fadef;fill-opacity:1;fill-rule:nonzero;stroke:none"
         d="m 9191.9155,12898.692 c -72.5,519.5 -224.7,874.7 -226.2,878.2 l 10.8,4.7 c 1.5,-3.6 154.3,-360.2 227.1,-881.2 l -11.7,-1.7" /><g
         transform="matrix(1.59114,0,0,1.59114,-3851.4845,3728.592)"
         id="g222"><path
           id="path224"
           style="fill:#8fadef;fill-opacity:1;fill-rule:nonzero;stroke:none"
           d="m 16300,2051.87 h -3206 v 2368.68 h 3206 V 2051.87" /></g><g
         transform="matrix(1.42343,0,0,1.42343,-3851.4845,3728.592)"
         id="g226"><path
           id="path228"
           style="fill:#9fc1f4;fill-opacity:1;fill-rule:nonzero;stroke:none"
           d="M 16300,2293.62 H 13458.6 V 4941.38 H 16300 V 2293.62" /></g><g
         transform="matrix(1.3246,0,0,1.3246,-3851.4845,3728.592)"
         id="g230"><path
           id="path232"
           style="fill:#35488b;fill-opacity:1;fill-rule:nonzero;stroke:none"
           d="M 16210.9,4845.55 H 15420 c -49,0 -89.1,40.09 -89.1,89.09 v 11.48 c 0,48.99 40.1,89.08 89.1,89.08 h 790.9 c 49,0 89.1,-40.09 89.1,-89.08 v -11.48 c 0,-49 -40.1,-89.09 -89.1,-89.09" /></g><g
         transform="matrix(1.42343,0,0,1.42343,-3851.4845,3728.592)"
         id="g234"><path
           id="path236"
           style="fill:#bdd8ff;fill-opacity:1;fill-rule:nonzero;stroke:none"
           d="m 16300,4808.6 h -2980.7 v 583.31 H 16300 V 4808.6" /></g><g
         transform="matrix(1.59894,0,0,1.59894,-3851.4845,3728.592)"
         id="g238"><path
           id="path240"
           style="fill:#7da4ea;fill-opacity:1;fill-rule:nonzero;stroke:none"
           d="m 16300,4280.78 h -1789.2 v 519.28 H 16300 v -519.28" /></g><g
         transform="matrix(1.41126,0,0,1.41126,-3851.4845,3728.592)"
         id="g242"><path
           id="path244"
           style="fill:#ff8c64;fill-opacity:1;fill-rule:nonzero;stroke:none"
           d="m 16300,3507.16 -919.2,-241.49 -241.5,919.25 919.2,241.49 241.5,-919.25" /></g><g
         transform="matrix(1.39373,0,0,1.39373,-3851.4845,3728.592)"
         id="g246"><path
           id="path248"
           style="fill:#f77d48;fill-opacity:1;fill-rule:nonzero;stroke:none"
           d="m 16300,4331.68 -930.9,-244.59 -39.4,150.46 930.8,244.52 39.5,-150.39" /></g><g
         transform="matrix(1.49838,0,0,1.49838,-3851.4845,3728.592)"
         id="g250"><path
           id="path252"
           style="fill:#f77d48;fill-opacity:1;fill-rule:nonzero;stroke:none"
           d="m 14537,6251.42 709.8,571.49 1053.2,-128.78 v -442.71 h -1763" /></g><g
         transform="matrix(1.40156,0,0,1.40156,-3851.4845,3728.592)"
         id="g254"><path
           id="path256"
           style="fill:#ff8c64;fill-opacity:1;fill-rule:nonzero;stroke:none"
           d="m 14415.1,6680.25 v 616.91 H 16300 v -616.91 h -1884.9" /></g><g
         transform="matrix(1.38971,0,0,1.38971,-3851.4845,3728.592)"
         id="g258"><path
           id="path260"
           style="fill:#dde7fe;fill-opacity:1;fill-rule:nonzero;stroke:none"
           d="m 16201.6,7145.18 c 54.4,0 98.4,-43.96 98.4,-98.29 0,-54.33 -44,-98.37 -98.4,-98.37 -54.3,0 -98.3,44.04 -98.3,98.37 0,54.33 44,98.29 98.3,98.29" /></g><g
         transform="matrix(1.38601,0,0,1.38601,-3851.4845,3728.592)"
         id="g262"><path
           id="path264"
           style="fill:#0b0755;fill-opacity:1;fill-rule:nonzero;stroke:none"
           d="m 16244.8,7120.79 c 30.5,0 55.2,-24.68 55.2,-55.12 0,-30.45 -24.7,-55.13 -55.2,-55.13 -30.4,0 -55.1,24.68 -55.1,55.13 0,30.44 24.7,55.12 55.1,55.12" /></g><g
         transform="matrix(1.36112,0,0,1.36112,-3851.4845,3728.592)"
         id="g266"><path
           id="path268"
           style="fill:#bdd8ff;fill-opacity:1;fill-rule:nonzero;stroke:none"
           d="m 15699.2,7051.16 v 283.01 h 600.8 v -283.01 h -600.8" /></g><g
         transform="matrix(1.40984,0,0,1.40984,-3851.4845,3728.592)"
         id="g270"><path
           id="path272"
           style="fill:#dde7fe;fill-opacity:1;fill-rule:nonzero;stroke:none"
           d="m 16300,5443.88 h -1856.9 v 598.58 H 16300 v -598.58" /></g><g
         transform="matrix(1.57046,0,0,1.57046,-3851.4845,3728.592)"
         id="g274"><path
           id="path276"
           style="fill:#b5c6e8;fill-opacity:1;fill-rule:nonzero;stroke:none"
           d="m 16300,4887.1 h -1667.1 v 537.36 H 16300 V 4887.1" /></g><g
         transform="matrix(1.28931,0,0,1.28931,-3851.4845,3728.592)"
         id="g278"><path
           id="path280"
           style="fill:#35488b;fill-opacity:1;fill-rule:nonzero;stroke:none"
           d="m 16300,6272.98 h -506.7 v 14.2 h 506.7 v -14.2" /></g><g
         transform="matrix(1.40984,0,0,1.40984,-3851.4845,3728.592)"
         id="g282"><path
           id="path284"
           style="fill:#35488b;fill-opacity:1;fill-rule:nonzero;stroke:none"
           d="m 16300,5920.88 h -1280 v 12.98 h 1280 v -12.98" /></g><g
         transform="matrix(1.32009,0,0,1.32009,-3851.4845,3728.592)"
         id="g286"><path
           id="path288"
           style="fill:#35488b;fill-opacity:1;fill-rule:nonzero;stroke:none"
           d="m 16300,5954.61 h -874.9 v 13.87 h 874.9 v -13.87" /></g><g
         transform="matrix(1.36003,0,0,1.36003,-3851.4845,3728.592)"
         id="g290"><path
           id="path292"
           style="fill:#e9f0ff;fill-opacity:1;fill-rule:nonzero;stroke:none"
           d="m 16300,6263.76 h -1925 v 620.5 h 1925 v -620.5" /></g><g
         transform="matrix(1.52064,0,0,1.52064,-3851.4845,3728.592)"
         id="g294"><path
           id="path296"
           style="fill:#bbc9f9;fill-opacity:1;fill-rule:nonzero;stroke:none"
           d="m 16300,5602.17 h -1721.6 v 554.96 H 16300 v -554.96" /></g><g
         transform="matrix(1.23949,0,0,1.23949,-3851.4845,3728.592)"
         id="g298"><path
           id="path300"
           style="fill:#8fadef;fill-opacity:1;fill-rule:nonzero;stroke:none"
           d="m 16300,7205.94 h -527.1 v 14.77 h 527.1 v -14.77" /></g><g
         transform="matrix(1.36003,0,0,1.36003,-3851.4845,3728.592)"
         id="g302"><path
           id="path304"
           style="fill:#8fadef;fill-opacity:1;fill-rule:nonzero;stroke:none"
           d="m 16300,6758.23 h -1326.9 v 13.46 H 16300 v -13.46" /></g><g
         transform="matrix(1.27027,0,0,1.27027,-3851.4845,3728.592)"
         id="g306"><path
           id="path308"
           style="fill:#8fadef;fill-opacity:1;fill-rule:nonzero;stroke:none"
           d="m 16300,6852.48 h -909.3 v 14.41 h 909.3 v -14.41" /></g><path
         id="path310"
         style="fill:#f99746;fill-opacity:1;fill-rule:nonzero;stroke:none"
         d="m 1988.0555,15368.892 c 49.6,-71.6 334.39,10.4 761.81,219.3 445.63,217.8 1008.06,550.9 1583.69,938.1 1068.62,718.7 1908.76,1442.7 1954.36,1684.2 3.7,19.4 1.7,34.9 -6,45.9 -49.6,71.6 -334.35,-10.4 -761.79,-219.3 -445.63,-217.8 -1008.07,-550.9 -1583.7,-938.1 -1068.61,-718.6 -1908.8,-1442.7 -1954.36,-1684.1 -3.67,-19.5 -1.66,-34.9 5.99,-46 z m 75.81,-48.4 c -46.39,0 -78.89,11.2 -95.31,34.9 -11.39,16.5 -14.69,38 -9.8,63.9 47.37,251 873.53,965.8 1964.43,1699.4 1064.91,716.2 2245.63,1342.6 2378.23,1151.2 11.4,-16.4 14.7,-37.9 9.8,-63.8 -47.4,-251.1 -873.52,-965.8 -1964.42,-1699.5 -932.96,-627.5 -1954.85,-1186.1 -2282.93,-1186.1" /><path
         id="path312"
         style="fill:#2c3a64;fill-opacity:1;fill-rule:nonzero;stroke:none"
         d="m 8089.4155,11568.992 c -741.7,238.1 -5474.1,-1798.2 -5474.1,-1798.2 0,0 -770.54,-547.1 -34.76,-1692.4 610.93,-950.9 5206.76,1954.2 5290.06,1589.3 198.9,-871.3 1894.0995,-2542.9 1894.0995,-2542.9 283.1,-92.8 913.2,285.2 913.2,285.2 -662,1005.7 -1995.9995,3968.8 -2588.4995,4159" /><path
         id="path314"
         style="fill:#ed975d;fill-opacity:1;fill-rule:nonzero;stroke:none"
         d="m 5677.6655,14777.092 c 0,0 -103.9,164.3 -120.65,330.7 -16.76,166.4 9.38,634.9 -107.9,744.2 -117.28,109.4 -488.78,379.9 -622.8,321.9 -134.02,-58 305.66,-328.4 318.95,-465.4 13.29,-136.9 4.91,-152 -46.33,-161.1 -51.24,-9.2 -220.34,192.3 -221.11,128.2 -0.77,-64 164.6,-416.5 246.9,-487.2 82.3,-70.6 204.57,-613.6 204.57,-613.6 l 348.37,202.3" /><path
         id="path316"
         style="fill:#8fadef;fill-opacity:1;fill-rule:nonzero;stroke:none"
         d="m 5677.6655,15009.092 c 0,0 -438.36,0 -512.53,-353.5 0,0 22.61,-1199.3 180.09,-2273.1 -945.09,892.9 -595.23,879.3 -1363.49,1460.9 -312.2,236.4 -593.49,-576.6 -585.7,-1151.7 7.78,-575.2 2013.2,-1889.7 2529.46,-1728.2 559.92,175.2 674.62,1429.4 -247.83,4045.6" /><g
         transform="matrix(1.13746,0,0,1.13746,-3851.4845,3728.592)"
         id="g318"><path
           id="path320"
           style="fill:#2c3a64;fill-opacity:1;fill-rule:nonzero;stroke:none"
           d="m 15476.1,2905.69 c 2.1,1.49 14,17.49 16.6,19.78 l 781.9,1313.36 c 25.4,40 2.7,92.49 -43.6,102.42 -95.8,20.57 -223.7,-1.76 -308.9,-112.44 -156.5,-203.26 -494.5,-519.49 -826.1,-451.71 -10.5,2.2 -21.3,4.84 -32,7.74 -341.5,96.09 -212.2,-616.03 -212.2,-616.03 0,0 11.2,-8.08 30.8,-21.36 105.4,-71.91 495.2,-310.69 593.5,-241.76" /></g><path
         id="path322"
         style="fill:#35488b;fill-opacity:1;fill-rule:nonzero;stroke:none"
         d="m 1770.9755,9304.492 c 0,0 4121.29,182.2 5714.64,-230.8 0,0 1583.8,-1114 261.9,-1484 -514.5,-143.9 -2273,-565.4 -3225.18,-565.4 -1562.93,0 -3058.66,-10 -3058.66,-10 -240.85,106 -278.34,818.4 -317.26,1010.3 -270.72,1334 624.56,1279.9 624.56,1279.9" /><g
         transform="matrix(1.05744,0,0,1.05744,-3851.4845,3728.592)"
         id="g324"><path
           id="path326"
           style="fill:#35488b;fill-opacity:1;fill-rule:nonzero;stroke:none"
           d="m 10628.9,5077.35 c 0,0 4084.9,-775.36 5671.1,-1023.04 0,0 -172.5,-666.23 -430.3,-813.94 0,0 -943.6,-61.76 -1887.1,-123.7 -1164.9,-76.5 -2314,66.3 -3012.5,346.88 -1577.51,633.41 -341.2,1613.8 -341.2,1613.8" /></g><path
         id="path328"
         style="fill:#ffb27d;fill-opacity:1;fill-rule:nonzero;stroke:none"
         d="m 4147.4755,12977.292 c -760.11,33.9 -1751.88,1203.8 -1751.88,1203.8 0,0 561.61,170.1 935.32,808.4 72.55,123.9 137.89,265.4 190.93,426.7 l 252.49,-418.9 372.2,-617.7 c 0,0 -33.72,-90 -109.29,-248.5 v -0.2 c -25.19,-52.9 -54.94,-113.5 -89.79,-180.7 -41.86,-80.9 -90.73,-171.4 -147.17,-270.7 233.92,-267.8 347.19,-702.2 347.19,-702.2" /><path
         id="path330"
         style="fill:#ed975d;fill-opacity:1;fill-rule:nonzero;stroke:none"
         d="m 4146.5355,14379.592 c 0,0 -33.72,-90 -109.29,-248.5 -536.99,365.3 -584.73,890.6 -584.73,890.6 0,0 41.67,6.2 321.82,-24.4 l 372.2,-617.7" /><path
         id="path332"
         style="fill:#ffb27d;fill-opacity:1;fill-rule:nonzero;stroke:none"
         d="m 4363.2055,14245.992 c 0,0 -1147.56,399.9 -887.47,1110.8 260.09,710.8 287.14,1241.1 1030.83,1015.8 743.68,-225.3 785.99,-548.4 756.89,-806.7 -29.11,-258.4 -595.04,-1405.7 -900.25,-1319.9" /><path
         id="path334"
         style="fill:#2b478b;fill-opacity:1;fill-rule:nonzero;stroke:none"
         d="m 3266.0055,16651.992 c -8.5,15.3 -32.13,31.2 -88.95,46.4 0,0 52,19.6 113.77,8.3 28.91,78.7 101.33,213.5 246.16,219.8 0,0 -82.25,-24.6 -109.87,-108.9 193.9,133 560.47,182.9 1490.03,-89.6 1225.06,-359.2 645.88,-1083.8 464.49,-1146.8 -181.4,-63 -532.29,286.2 -837.84,324.6 -305.54,38.3 -454.48,-390.8 -569.02,-430.1 -114.53,-39.3 -52.18,59.3 -176.93,151.3 -124.76,92.1 -186.18,-137.3 -177.75,-296.5 8.42,-159.2 -263.45,-295.8 -263.45,-295.8 0,0 -27.14,93.3 -107,226.3 -149.28,248.5 -143.78,1174.1 -17.34,1345.1 11.17,15.1 22.29,30.5 33.7,45.9" /><path
         id="path336"
         style="fill:#9fc1f4;fill-opacity:1;fill-rule:nonzero;stroke:none"
         d="m 4470.4255,12204.192 c -86.37,-2226.4 -833.42,-1882.8 -444.93,-2541.8 247.57,-419.7 -269.72,-751 -837.59,-1178.9 -16.67,-12.5 -33.34,-25.2 -50,-37.9 -162.9,-123.9 -335.26,-245.1 -507.63,-355.3 -267.26,-170.9 -534.9,-316 -768.26,-405 -238.09,-91.1 -440.58,-124.2 -570.89,-67.6 -4.17,1.7 -7.96,3.2 -11.75,5.1 -111.37,54.9 -203.8,203.8 -279.38,405.5 -135.81,359.5 -290,1781.5 -333.94,2206.3 -7.76,76.4 -12.12,120.5 -12.12,120.5 -252.11003,3099.6 2321.07,4188.3 2321.07,4188.3 0,0 225.21,-672.8 952.56,-631.5 1.33,-1.1 579.42,-764.3 542.86,-1707.7" /><path
         id="path338"
         style="fill:#8fadef;fill-opacity:1;fill-rule:nonzero;stroke:none"
         d="m 3187.9055,8483.492 c -16.67,-12.5 -33.34,-25.2 -50,-37.9 -162.9,-123.9 -335.26,-245.1 -507.63,-355.3 -267.26,-170.9 -534.9,-316 -768.26,-405 -258.17,-73.3 -471.83,-105.7 -570.89,-67.6 -4.17,1.7 -7.96,3.2 -11.75,5.1 -111.37,54.9 -203.8,203.8 -279.38,405.5 -135.81,359.5 -290,1781.5 -333.94,2206.3 315.76,908.8 749.89,1936 1231.76,2396.1 950.1,907.3 1239.71,-474.5 1239.71,-474.5 0,0 -734.92,-1813 50.38,-3672.7" /><path
         id="path340"
         style="fill:#9fc1f4;fill-opacity:1;fill-rule:nonzero;stroke:none"
         d="m 2213.8255,13464.892 c -376.73,-936.5 -1158.97,-2742.8 -880.69,-3621.5 0,0 1126.49,-297.3 1159.2,51.3 182.81,1948.8 1859.24,4080.4 565.23,4038.6 -361.98,-11.7 -708.57,-132.4 -843.74,-468.4" /><path
         id="path342"
         style="fill:#f77d48;fill-opacity:1;fill-rule:nonzero;stroke:none"
         d="m 3832.9255,13800.492 c 0,0 898.34,-2712.9 378.07,-5329.9 l -772.6,-265.6 -189.26,549.4 c 0,0 1001.55,2559.3 459.14,5017.3 l 124.65,28.8" /><path
         id="path344"
         style="fill:#ffb27d;fill-opacity:1;fill-rule:nonzero;stroke:none"
         d="m 2178.7155,7653.592 c 0,0 293.59,-400.9 653.48,-344.1 359.88,56.8 492.47,-47.3 653.47,-132.6 161,-85.2 205.26,-130.1 147.62,-152.6 -43.4,-17 -829.63,-8.4 -1215.72,-3.1 -126.8,1.7 -489.83,340.4 -489.83,340.4 l 250.98,292" /><path
         id="path346"
         style="fill:#9fc1f4;fill-opacity:1;fill-rule:nonzero;stroke:none"
         d="m 1286.3555,10097.592 c -54.71,-1463.8 450.04,-2462.5 586.99,-2974.3 0,0 166.46,-79 295.9,-36.3 283.07,93.2 279.73,317.8 279.73,317.8 0,0 7.54,1821 43.36,2489.9 34.9,651.9 -1194.56,508.4 -1205.98,202.9" /><path
         id="path348"
         style="fill:#f77d48;fill-opacity:1;fill-rule:nonzero;stroke:none"
         d="m 3137.5355,14714.592 c 0,0 -241.35,-65 -360.95,-271.1 0,0 94.05,-406.5 1012.71,-633.8 l -34.69,106.2 c 0,0 -524.82,257.9 -617.07,798.7" /><path
         id="path350"
         style="fill:#f77d48;fill-opacity:1;fill-rule:nonzero;stroke:none"
         d="m 3754.6055,13915.892 c 0,0 187.35,69.6 226.75,100.8 0,0 46.96,-107 27.79,-194.2 0,0 -60.65,-38 -219.85,-12.8 -159.2,25.1 -34.69,106.2 -34.69,106.2" /><path
         id="path352"
         style="fill:#f77d48;fill-opacity:1;fill-rule:nonzero;stroke:none"
         d="m 3832.9255,13916.892 c 0,0 -183.1,15.6 -202.04,-8 -18.94,-23.6 107.03,-239.9 169.4,-229.4 62.36,10.5 83.15,212.1 32.64,237.4" /><path
         id="path354"
         style="fill:#f99746;fill-opacity:1;fill-rule:nonzero;stroke:none"
         d="m 2081.0955,15324.892 c -46.39,0 -78.88,11.2 -95.31,34.9 l 19.5,13.5 c 95.87,-138.4 1061.23,293.6 2345.51,1157.3 1068.61,718.7 1908.82,1442.8 1954.32,1684.2 3.7,19.5 1.7,34.9 -6,45.9 l 19.5,13.5 c 11.4,-16.4 14.7,-37.9 9.8,-63.8 -47.3,-251 -873.48,-965.8 -1964.38,-1699.5 -932.97,-627.4 -1954.87,-1186 -2282.94,-1186" /><path
         id="path356"
         style="fill:#f99746;fill-opacity:1;fill-rule:nonzero;stroke:none"
         d="m 5860.6255,17508.492 c -2.86,0 -5.69,0 -8.56,0 -529.17,-0.9 -1207.99,-77.6 -1911.44,-216.1 -1247.07,-245.6 -2272.81,-630.2 -2438.99,-914.4 -21.31,-36.5 -27.06,-70.3 -17.09,-100.6 42.3,-128.3 359.14,-201.8 869.73,-201.8 2.85,0 5.69,0 8.55,0 529.17,0.9 1207.99,77.6 1911.44,216.1 1247.07,245.6 2272.85,630.2 2438.95,914.5 21.4,36.4 27.1,70.2 17.1,100.5 -42.3,128.3 -359.1,201.8 -869.69,201.8 z m -3506.57,-1462.3 c -254.82,0 -461.19,17.7 -613.54,52.7 -163.8,37.6 -259.33,94.6 -283.96,169.3 -12.73,38.6 -6.13,80.6 19.64,124.6 111.24,190.3 558.48,381.8 815.18,479 446.66,169.1 1030.35,328.7 1643.56,449.5 705.25,138.8 1386.08,215.8 1917.09,216.6 258.55,0.6 468.29,-17.3 622.39,-52.7 163.8,-37.6 259.3,-94.6 283.9,-169.3 12.8,-38.6 6.2,-80.5 -19.6,-124.6 -111.2,-190.3 -558.5,-381.8 -815.2,-479 -446.66,-169.1 -1030.35,-328.7 -1643.56,-449.5 -705.24,-138.8 -1386.08,-215.8 -1917.08,-216.6 -2.94,0 -5.89,0 -8.82,0" /><path
         id="path358"
         style="fill:#ffb93e;fill-opacity:1;fill-rule:nonzero;stroke:none"
         d="m 2219.6155,16891.392 -74.03,-58.8 91.66,-23 32.99,-88.6 50.22,80.1 94.42,4 -60.62,72.5 25.36,91 -87.68,-35.2 -78.75,52.2 6.43,-94.2" /><path
         id="path360"
         style="fill:#ffb93e;fill-opacity:1;fill-rule:nonzero;stroke:none"
         d="m 6025.3555,17891.692 -30.26,-89.5 89.46,30.4 75.76,-56.4 -1.3,94.5 77.1,54.6 -90.23,28 -28.15,90.2 -54.48,-77.2 -94.51,1.1 56.61,-75.7" /><path
         id="path362"
         style="fill:#f99746;fill-opacity:1;fill-rule:nonzero;stroke:none"
         d="m 5005.1055,18537.192 -39.9,-85.6 92.27,20.4 69.14,-64.4 9.07,94.1 82.64,45.8 -86.66,37.7 -18.07,92.8 -62.64,-70.8 -93.8,11.5 47.95,-81.5" /><path
         id="path364"
         style="fill:#f99746;fill-opacity:1;fill-rule:nonzero;stroke:none"
         d="m 6153.5155,16176.392 -39.9,-85.6 92.3,20.4 69.1,-64.4 9.1,94 82.6,45.9 -86.6,37.7 -18.1,92.7 -62.6,-70.7 -93.84,11.5 47.94,-81.5" /><path
         id="path366"
         style="fill:#ffb93e;fill-opacity:1;fill-rule:nonzero;stroke:none"
         d="m 2483.9955,15540.992 -78.31,-52.9 89.62,-30 26.11,-90.8 56.21,75.9 94.45,-3.2 -54.88,76.9 32.26,88.9 -90.13,-28.5 -74.51,58.2 -0.82,-94.5" /><path
         id="path368"
         style="fill:#f99746;fill-opacity:1;fill-rule:nonzero;stroke:none"
         d="m 597.7155,15947.092 501.81,-169.9 -58.95,205 293.67,-56 -515.7,257.8 89.76,-239.5 -310.59,2.6" /><path
         id="path370"
         style="fill:#f99746;fill-opacity:1;fill-rule:nonzero;stroke:none"
         d="m 3929.4555,18872.492 -32.6,-811 275.72,175.3 44.75,-455.8 155.81,869.4 -313.06,-235.5 -130.62,457.6" /><g
         transform="matrix(1.22006,0,0,1.22006,-3851.4845,3728.592)"
         id="g372"><path
           id="path374"
           style="fill:#ffffff;fill-opacity:1;fill-rule:nonzero;stroke:none"
           d="m 15212.3,3150.84 c 11.9,-28.6 33.8,-180.07 80.5,-306.71 v -0.16 c 28.1,-76.23 64.9,-143.27 114,-169.5 130.8,-69.92 362.2,24.75 362.2,24.75 0,0 384.1,-66.06 422.7,-50.24 38.6,15.74 108.3,593.91 108.3,593.91 0,0 -283.4,329 -309.8,339.41 -26.3,10.41 -252.9,-93.44 -290.5,-91.31 -37.5,2.05 -249.7,157.94 -310.8,125.16 -61.1,-32.95 -195.6,-419.49 -176.6,-465.31" /></g><g
         transform="matrix(1.19687,0,0,1.19687,-3851.4845,3728.592)"
         id="g376"><path
           id="path378"
           style="fill:#f2f7fe;fill-opacity:1;fill-rule:nonzero;stroke:none"
           d="m 16003.9,3558.63 c 0,0 59.9,-158.5 78.3,-173.2 18.4,-14.71 217.8,266.28 217.8,266.28 -26.8,10.61 -257.8,-95.25 -296.1,-93.08" /></g><g
         transform="matrix(1.17108,0,0,1.17108,-3851.4845,3728.592)"
         id="g380"><path
           id="path382"
           style="fill:#f2f7fe;fill-opacity:1;fill-rule:nonzero;stroke:none"
           d="m 16028.5,3610 c 0,0 271.5,-280.85 266.4,-305.44 -5.1,-24.59 -320.7,-184.36 -331.5,-177.53 -10.9,6.83 76.8,204.08 74.9,238.33 -1.9,34.32 -9.8,244.64 -9.8,244.64" /></g><g
         transform="matrix(1.15186,0,0,1.15186,-3851.4845,3728.592)"
         id="g384"><path
           id="path386"
           style="fill:#f2f7fe;fill-opacity:1;fill-rule:nonzero;stroke:none"
           d="m 16113,3337.39 c 12.6,-30.3 35.8,-190.74 85.2,-324.87 v -0.17 h 0.1 l -18.1,302.38 119.8,515.51 c -64.7,-34.9 -207.1,-444.32 -187,-492.85" /></g><g
         transform="matrix(1.22006,0,0,1.22006,-3851.4845,3728.592)"
         id="g388"><path
           id="path390"
           style="fill:#f2f7fe;fill-opacity:1;fill-rule:nonzero;stroke:none"
           d="m 15769,2699.22 c 0,0 384.1,-66.06 422.7,-50.24 38.6,15.74 108.3,593.91 108.3,593.91 0,0 -100.6,-292.94 -103.3,-307.69 -2.6,-14.68 -119.8,24.34 -119.8,24.34 L 15769,2699.22" /></g><g
         transform="matrix(1.21252,0,0,1.21252,-3851.4845,3728.592)"
         id="g392"><path
           id="path394"
           style="fill:#f2f7fe;fill-opacity:1;fill-rule:nonzero;stroke:none"
           d="m 16300,3268.66 -51.8,-152.49 -89.1,4.94 69.8,61.37 71.1,86.18" /></g><g
         transform="matrix(1.36436,0,0,1.36436,-3851.4845,3728.592)"
         id="g396"><path
           id="path398"
           style="fill:#ffffff;fill-opacity:1;fill-rule:nonzero;stroke:none"
           d="m 15545.6,2699.73 c 8.3,-17.37 23.4,-109.13 55.8,-186.16 v -0.15 c 19.5,-46.32 45.2,-87.29 79.2,-103.56 90.7,-43.61 251.2,11.21 251.2,11.21 0,0 266.5,-43.9 293.3,-34.74 26.7,9.16 74.9,357.9 74.9,357.9 0,0 -196.7,201.77 -215,208.37 -18.2,6.53 -175.4,-53.87 -201.5,-52.26 -26.1,1.62 -173.2,98.07 -215.6,78.87 -42.4,-19.28 -135.5,-251.55 -122.3,-279.48" /></g><g
         transform="matrix(1.34636,0,0,1.34636,-3851.4845,3728.592)"
         id="g400"><path
           id="path402"
           style="fill:#c4d9e8;fill-opacity:1;fill-rule:nonzero;stroke:none"
           d="m 16095.8,2939.11 c 0,0 41.3,-95.82 54,-104.88 12.7,-8.99 150.2,157.83 150.2,157.83 -18.5,6.61 -177.7,-54.59 -204.2,-52.95" /></g><g
         transform="matrix(1.32637,0,0,1.32637,-3851.4845,3728.592)"
         id="g404"><path
           id="path406"
           style="fill:#dfebf5;fill-opacity:1;fill-rule:nonzero;stroke:none"
           d="m 16113.9,2970.67 c 0,0 186.1,-170.39 182.6,-185.02 -3.5,-14.62 -219.6,-106.76 -227,-102.61 -7.4,4.22 52.5,121.01 51.2,141.52 -1.3,20.5 -6.8,146.11 -6.8,146.11" /></g><g
         transform="matrix(1.31145,0,0,1.31145,-3851.4845,3728.592)"
         id="g408"><path
           id="path410"
           style="fill:#c4d9e8;fill-opacity:1;fill-rule:nonzero;stroke:none"
           d="m 16172.7,2808.65 c 8.7,-18.07 24.4,-113.54 58.1,-193.68 v -0.15 h 0.1 l -12.4,179.73 81.5,304.85 c -44.1,-20.06 -141,-261.7 -127.3,-290.75" /></g><g
         transform="matrix(1.36436,0,0,1.36436,-3851.4845,3728.592)"
         id="g412"><path
           id="path414"
           style="fill:#dfebf5;fill-opacity:1;fill-rule:nonzero;stroke:none"
           d="m 15931.8,2421.07 c 0,0 266.5,-43.9 293.3,-34.74 26.7,9.16 74.9,357.9 74.9,357.9 0,0 -69.7,-176.06 -71.5,-184.93 -1.8,-8.87 -83.2,15.98 -83.2,15.98 l -213.5,-154.21" /></g><g
         transform="matrix(1.35851,0,0,1.35851,-3851.4845,3728.592)"
         id="g416"><path
           id="path418"
           style="fill:#dfebf5;fill-opacity:1;fill-rule:nonzero;stroke:none"
           d="m 16300,2760.45 -35.8,-91.49 -61.7,3.9 48.3,36.36 49.2,51.23" /></g><g
         transform="matrix(1.39759,0,0,1.39759,-3851.4845,3728.592)"
         id="g420"><path
           id="path422"
           style="fill:#ffffff;fill-opacity:1;fill-rule:nonzero;stroke:none"
           d="m 15563.5,7599.27 c 8,-16.99 22.9,-106.58 54.5,-181.8 v -0.1 c 19.1,-45.27 44.1,-85.2 77.3,-101.14 88.6,-42.56 245.3,10.96 245.3,10.96 0,0 260.2,-42.82 286.3,-33.9 26,8.92 73.1,349.36 73.1,349.36 0,0 -192,197.02 -209.9,203.43 -17.9,6.41 -171.2,-52.6 -196.7,-50.99 -25.4,1.6 -169.2,95.72 -210.5,76.98 -41.3,-18.84 -132.3,-245.57 -119.4,-272.8" /></g><g
         transform="matrix(1.3796,0,0,1.3796,-3851.4845,3728.592)"
         id="g424"><path
           id="path426"
           style="fill:#c4d9e8;fill-opacity:1;fill-rule:nonzero;stroke:none"
           d="m 16100.7,7896.76 c 0,0 40.3,-93.54 52.7,-102.34 12.4,-8.81 146.6,154 146.6,154 -18.1,6.49 -173.5,-53.29 -199.3,-51.66" /></g><g
         transform="matrix(1.3596,0,0,1.3596,-3851.4845,3728.592)"
         id="g428"><path
           id="path430"
           style="fill:#dfebf5;fill-opacity:1;fill-rule:nonzero;stroke:none"
           d="m 16118.5,8000.44 c 0,0 181.5,-166.22 178,-180.49 -3.3,-14.26 -214.1,-104.16 -221.4,-100.08 -7.2,4.07 51.2,118.06 50,138.04 -1.3,20 -6.6,142.53 -6.6,142.53" /></g><g
         transform="matrix(1.34468,0,0,1.34468,-3851.4845,3728.592)"
         id="g432"><path
           id="path434"
           style="fill:#c4d9e8;fill-opacity:1;fill-rule:nonzero;stroke:none"
           d="m 16175.9,7898.27 c 8.3,-17.66 23.8,-110.77 56.6,-188.95 v -0.11 h 0.1 l -12.1,175.27 79.5,297.33 c -43,-19.58 -137.5,-255.23 -124.1,-283.54" /></g><g
         transform="matrix(1.39759,0,0,1.39759,-3851.4845,3728.592)"
         id="g436"><path
           id="path438"
           style="fill:#dfebf5;fill-opacity:1;fill-rule:nonzero;stroke:none"
           d="m 15940.6,7327.19 c 0,0 260.2,-42.82 286.3,-33.9 26,8.92 73.1,349.36 73.1,349.36 0,0 -68,-171.85 -69.8,-180.51 -1.8,-8.66 -81.2,15.58 -81.2,15.58 l -208.4,-150.53" /></g><g
         transform="matrix(1.39174,0,0,1.39174,-3851.4845,3728.592)"
         id="g440"><path
           id="path442"
           style="fill:#dfebf5;fill-opacity:1;fill-rule:nonzero;stroke:none"
           d="m 16300,7679.08 -35,-89.27 -60.2,3.8 47.1,35.44 48.1,50.03" /></g></g></g></svg>
